<svg viewBox="0 0 240 158" xmlns="http://www.w3.org/2000/svg" data-name="Layer 1" id="Layer_1">
  <defs>
    <style>
      .cls-1 {
        fill: #142740;
        fill-rule: evenodd;
      }
    </style>
  </defs>
  <path d="M29.95,89.68l-6.86,7.33,8.35-5.58c.92-.62,2.62-1.81,3.69-2.86,1.66-1.3,2.16-2.03,2.57-3,.34-.68.19-1.42-.02-2.07-.11-.59-.38-1.34-.62-2-.08-.23-.16-.43-.2-.57-.17-.59-.34-1.01-.53-1.5-.09-.23-.19-.48-.31-.78-.22-.59-.49-1.41-.74-2.19-.14-.43-.28-.86-.38-1.16-.63-2.36-.5-2.64.1-4l.17-.37c.5-1,1.32-1.91,2.7-2.97.64-.53,1.58-1.12,2.34-1.59.35-.16.72-.33,1.11-.5.72-.34,1.5-.69,2.34-1.05,1.46-.56,3.25-1.12,5.05-1.57l.88-.22v-6.37l-1.49.44h0c-2.37.71-4.76,1.67-6.35,2.35-3.26,1.4-5.02,2.27-6.98,4.1-.69.59-1.53,1.46-2.59,2.72-1.92,2.55-2.75,4.47-2.88,6.68,0,.52,0,1.16.44,2.18.34.82.92,1.97,1.41,2.83.22.52.4.85.59,1.21.1.19.21.39.33.63.31.63.76,1.62.97,2.36.47,1.49.42,1.62.13,2.49-.38,1.05-1.56,3.25-3.21,5.02Z" class="cls-1"></path>
  <path d="M179,106.04c-.69-3.69,0-6.11,1.73-9.34.57-1.04,1.15-1.95,1.5-2.42.23-.39.47-.73.69-1.04.69-1.15,1.85-2.88,2.77-4.38.46-.81,1.04-1.85,1.39-2.65.57-1.73.69-2.88-.58-4.15-3.46-2.76-7.15-.92-11.64,4.49-4.26,6-5.19,13.94-1.73,21.32,1.04,1.95,2.42,3.91,4.49,5.64.81.92,1.85,1.73,3.11,2.42,1.15.81,2.65,1.49,3.57,1.96h0c1.61.82,1.73.82,2.65,1.16-5.19-4.15-7.26-8.76-7.96-13.02Z" class="cls-1"></path>
  <path d="M76.08,120.2c-.23-.92-.34-1.85-.34-3.69s.11-4.61.34-7.37c-1.27.46-2.42.8-3.34,1.15-.81.23-1.38.47-1.85.58h0c-1.04.34-1.96.69-2.88,1.04,1.38,3.57,2.42,7.37,2.88,9.79.58,2.42.46,3.46-.12,5.19-.46,1.61-1.38,3.8-2.43,5.87h7.84c1.62-1.27,2.53-3,2.42-4.26,0-.46,0-.92-.46-2.3-.47-1.38-1.27-3.69-2.07-6Z" class="cls-1"></path>
  <path d="M161.6,119.4c-1.16.92-2.08,1.61-2.77,2.19-.57.47-1.61,1.27-2.65,2.08,0,1.61.23,3.1.47,4.26.34,2.07.92,3.23,2.3,4.84h7.72c-1.27-1.73-2.42-3.46-3.23-5.19-1.04-2.65-1.38-5.42-1.84-8.18Z" class="cls-1"></path>
  <path d="M192.95,77.33c-1.73-1.85-4.49-4.38-6.34-6.11-1.85-1.73-2.88-2.53-4.84-4.84-1.96-2.43-4.84-6.22-7.38-9.92-2.65-3.68-4.84-7.25-6-9.22-1.26-1.96-1.38-2.3-2.3-3.92-.81-1.62-2.53-4.38-4.26-6.68-4.96-6.57-10.02-9.79-14.98-11.07-1.61-.46-3.46-.58-5.88-.58-2.42.11-5.53.47-9.22,1.04-3.69.69-7.83,1.73-13.13,3.46-5.19,1.73-11.64,4.15-14.87,5.42-3.34,1.38-3.46,1.5-7.38,2.88-3.91,1.38-11.53,4.15-17.06,6-5.54,1.96-8.99,3.11-12.22,4.26-3.34,1.15-6.34,2.42-8.41,3.46-2.07,1.04-3.11,1.96-3.92,2.77s-1.27,1.62-1.61,2.88c-.34,1.15-.34,2.77,0,8.41.47,5.54,1.27,15.22,2.3,24.9,0,.35-.11.69-.34,1.15-.11.47-.46,1.04-1.38,2.07-1.04,1.15-2.53,2.77-3.46,3.81-.92.92-1.27,1.27-1.96,2.07-.69.69-1.73,1.85-2.42,2.88-.81.92-1.15,1.73-1.85,3.92-.8,2.3-1.95,6.45-3,10.37-.57,1.96-1.04,4.04-1.62,5.3-.57,1.27-1.04,1.73-1.5,2.19-1.27,1.16-2.88,2.19-4.61,2.88l-3.69,5.64h12.11c.69-.46,1.38-1.38,1.38-2.19v-.69c0-.69.81-3,1.85-5.07.57-1.15,1.16-2.19,2.07-3.23.92-1.03,2.19-2.19,4.15-3.68,1.96-1.49,4.49-3.34,7.14-5.07,2.65-1.84,5.54-3.57,7.72-4.72,2.19-1.04,3.8-1.73,6.57-2.53,2.77-.92,6.8-1.96,9.69-2.65,2.76-.58,4.38-.81,9.34-1.73,5.07-.92,13.49-2.53,21.78-4.26,4.26,4.15,8.41,8.41,11.17,11.53,2.77,3,4.04,4.84,5.07,6.34,2.07,3.11,2.3,4.73,2.07,6.92-.34,3.46-1.61,7.26-5.19,11.3h5.99c2.19-4.15,4.26-8.53,5.3-11.18,1.04-2.53,1.15-3.57,1.04-4.84,0-1.38-.11-3.23-.11-4.26-.11-1.04-.11-1.27-.11-1.85.11-1.15.69-3,1.95-4.73.58-.81,1.39-1.85,2.53-2.88,1.27-1.16,2.76-2.3,4.38-3.34-4.04,4.84-5.29,9.68-4.49,15.21.46,1.85.92,3.35,3.34,5.19,1.5.92,3.68,1.61,5.64,1.04.57-.11,1.04-.35,1.96-1.04,1.96-1.38,5.19-4.26,7.84-6.34h.02c2.65-2.19,5.07-4.04,7.6-6.11-2.19-5.19-2.53-10.49-1.04-16.02.92-3.46,2.43-6.57,5.54-9.91,4.73-4.96,9.79-6.11,14.52-3,.8.46,1.61,1.15,2.07,1.62,1.73,1.84,1.5,2.99,1.27,4.49-.23,1.27-1.84,4.15-3.57,6.68-.81,1.27-1.5,2.3-2.19,3.34,2.53-1.5,4.96-3.34,6.57-4.84,1.61-1.38,2.3-2.42,2.77-3.46,1.15-2.19,1.15-3.58.34-5.3-.34-1.04-1.15-2.19-2.77-4.15Z" class="cls-1"></path>
  <path d="M215.88,87.94c-.69-2.07-1.5-4.04-2.54-5.88-1.04-1.85-2.3-3.57-3.57-5.07-6-6.68-11.98-7.26-18.44-6.22,1.62,1.61,3.23,3.11,4.26,4.04,1.85,1.61,1.96,1.49,2.77,2.53.47.47.81,1.04,1.16,1.73.23.57.46,1.38.57,1.85.35.81.23.92.35,1.38,2.77,0,5.42.69,8.06,2.42,1.27.92,2.53,2.07,3.91,3.69,1.5,1.73,3.11,3.92,4.5,6.22-.11-2.3-.47-4.61-1.04-6.68Z" class="cls-1"></path>
</svg>