<svg xmlns="http://www.w3.org/2000/svg" fill="none" viewBox="0 0 120 40" height="40" width="120">
<g clip-path="url(#clip0_57431_9848)">
<path fill="#52525B" d="M96.4904 7.56964C96.5594 7.63858 96.5594 7.63858 96.6297 7.70891C96.5983 8.49796 96.3518 9.31818 96.1917 10.0897C96.162 10.2336 96.1323 10.3776 96.1027 10.5216C96.0404 10.8234 95.978 11.1252 95.9155 11.427C95.837 11.8054 95.7589 12.1839 95.6809 12.5625C95.488 13.4983 95.2937 14.4339 95.0977 15.3691C95.0845 15.4318 95.0713 15.4946 95.0578 15.5593C94.7626 16.9656 94.4491 18.3629 94.0792 19.7519C94.0416 19.8949 94.0041 20.038 93.9666 20.181C93.7228 21.1088 93.4714 22.0345 93.2174 22.9596C93.2634 22.9596 93.3094 22.9596 93.3567 22.9596C93.4355 22.8553 93.4355 22.8553 93.5085 22.7167C93.5383 22.6638 93.5681 22.611 93.5987 22.5565C93.6309 22.4985 93.6631 22.4405 93.6962 22.3807C94.5841 20.8158 95.5645 19.2746 96.6993 17.876C96.7294 17.8389 96.7595 17.8017 96.7906 17.7634C97.6293 16.7334 98.5359 15.7318 99.833 15.2994C100.754 15.2321 101.326 15.3798 102.038 15.979C103.119 17.0138 103.656 18.7471 103.69 20.2089C103.691 20.2836 103.692 20.3583 103.694 20.4352C103.697 20.5045 103.7 20.5738 103.703 20.6452C103.726 22.2988 103.04 24.0446 102.615 25.634C102.496 26.08 102.378 26.5261 102.259 26.9723C102.219 27.1254 102.178 27.2785 102.137 27.4315C101.984 28.0043 101.842 28.5787 101.713 29.1574C101.744 29.12 101.775 29.0826 101.806 29.0441C102.026 28.7765 102.026 28.7765 102.131 28.6699C102.177 28.6699 102.223 28.6699 102.27 28.6699C102.288 28.6291 102.306 28.5884 102.325 28.5463C102.416 28.3796 102.514 28.2722 102.65 28.14C102.697 28.0932 102.745 28.0463 102.794 27.998C102.844 27.9497 102.894 27.9014 102.945 27.8517C103.276 27.5291 103.594 27.2029 103.895 26.8525C104.074 26.6484 104.266 26.4579 104.46 26.2674C104.497 26.2301 104.535 26.1927 104.574 26.1542C104.665 26.0641 104.756 25.9742 104.847 25.8844C104.962 25.9533 105.077 26.0223 105.195 26.0933C105.157 26.4221 105.009 26.6644 104.834 26.9377C104.803 26.9857 104.773 27.0338 104.742 27.0833C104.109 28.0649 103.395 28.9828 102.619 29.8538C102.562 29.9181 102.505 29.9825 102.447 30.0488C102.297 30.2177 102.145 30.3845 101.992 30.5501C101.95 30.5962 101.907 30.6422 101.864 30.6897C101.139 31.4476 100.089 32.3658 99.0017 32.4521C98.1599 32.4371 97.4886 32.0117 96.893 31.4486C95.9425 30.4414 95.5211 29.1183 95.5533 27.748C95.5984 26.9592 95.8118 26.1819 95.9888 25.4139C96.0852 24.9949 96.1792 24.5755 96.2731 24.156C96.3765 23.6939 96.4801 23.2318 96.5848 22.77C96.601 22.698 96.6173 22.6261 96.6341 22.5519C96.6648 22.4164 96.6955 22.2809 96.7264 22.1454C96.8563 21.5705 96.9209 21.0378 96.9213 20.4483C96.9221 20.38 96.923 20.3118 96.9239 20.2414C96.924 20.1753 96.9242 20.1092 96.9243 20.0411C96.9246 19.9814 96.9249 19.9217 96.9252 19.8602C96.9062 19.6657 96.8491 19.5158 96.769 19.3384C95.8108 20.4387 95.0342 21.6552 94.262 22.89C94.2333 22.9314 94.2046 22.9728 94.175 23.0155C93.9511 23.3483 93.8497 23.6248 93.7977 24.0205C93.7892 24.0764 93.7808 24.1324 93.7721 24.19C93.7441 24.3775 93.718 24.5651 93.6918 24.7528C93.6722 24.8868 93.6524 25.0208 93.6325 25.1548C93.588 25.4562 93.5444 25.7576 93.5013 26.0591C93.4089 26.7042 93.3138 27.3488 93.2188 27.9934C93.1949 28.1556 93.1711 28.3178 93.1472 28.48C93.1393 28.5335 93.1314 28.587 93.1233 28.6421C93.0758 28.9645 93.0287 29.2869 92.9818 29.6093C92.9523 29.8125 92.9226 30.0157 92.893 30.2189C92.8791 30.3143 92.8652 30.4097 92.8515 30.5052C92.8325 30.6366 92.8133 30.7681 92.7941 30.8996C92.7833 30.9736 92.7726 31.0477 92.7615 31.124C92.7352 31.2842 92.7029 31.4382 92.6603 31.5947C92.0038 31.737 91.3417 31.8278 90.6767 31.92C90.6157 31.9285 90.5546 31.937 90.4917 31.9458C90.1693 31.9906 89.8469 32.0351 89.5244 32.0794C89.1921 32.1251 88.86 32.172 88.5279 32.219C88.2714 32.2551 88.0149 32.2904 87.7583 32.3255C87.6357 32.3424 87.5132 32.3596 87.3908 32.3771C87.2198 32.4016 87.0487 32.4248 86.8775 32.4477C86.8273 32.4551 86.7772 32.4626 86.7255 32.4703C86.4145 32.5103 86.1934 32.4853 85.9055 32.3607C85.8358 32.2911 85.8358 32.2911 85.8224 32.0736C85.8289 31.6074 85.9117 31.1472 85.981 30.6871C85.9968 30.5806 86.0125 30.474 86.0282 30.3675C86.0711 30.0767 86.1145 29.7861 86.158 29.4954C86.2044 29.1843 86.2504 28.8732 86.2964 28.5621C86.3857 27.9594 86.4754 27.3567 86.5652 26.754C86.6687 26.0592 86.7718 25.3644 86.8749 24.6695C87.0518 23.4771 87.2289 22.2847 87.4063 21.0923C87.6083 19.7345 87.8097 18.3766 88.0107 17.0186C88.1246 16.2487 88.2387 15.4789 88.3527 14.709C88.3884 14.4685 88.424 14.228 88.4596 13.9875C88.5398 13.4457 88.6201 12.9039 88.7006 12.3621C88.7245 12.2009 88.7484 12.0397 88.7722 11.8786C88.8044 11.6615 88.8366 11.4444 88.8689 11.2273C88.8782 11.1645 88.8875 11.1016 88.897 11.0368C88.9099 10.9502 88.9099 10.9502 88.9231 10.8619C88.9304 10.8124 88.9378 10.7629 88.9453 10.7119C88.9725 10.5458 89.0062 10.3809 89.0392 10.2159C88.3957 10.2159 87.7523 10.2159 87.0893 10.2159C87.0893 10.055 87.0893 9.89415 87.0893 9.72841C88.5703 9.35101 90.0517 8.97532 91.5335 8.60127C91.8556 8.51994 92.1776 8.43845 92.4996 8.35677C93.0128 8.2266 93.5262 8.09733 94.0399 7.96913C94.2105 7.92638 94.3811 7.88332 94.5517 7.83994C94.7879 7.77991 95.0243 7.72101 95.2609 7.6624C95.3295 7.64469 95.3981 7.62698 95.4688 7.60874C95.8368 7.51898 96.1207 7.47333 96.4904 7.56964Z"></path>
<path fill="#52525B" d="M25.4598 7.56964C25.5287 7.63858 25.5287 7.63858 25.599 7.70891C25.5712 8.56675 25.2922 9.46775 25.1203 10.3059C25.0862 10.4725 25.0522 10.639 25.0182 10.8056C24.9467 11.1551 24.875 11.5046 24.8032 11.8541C24.7309 12.2062 24.6589 12.5583 24.5873 12.9105C24.0118 15.7385 23.3947 18.5482 22.6307 21.3318C22.5869 21.4929 22.5431 21.6541 22.4993 21.8152C22.3956 22.1968 22.2914 22.5783 22.1868 22.9596C22.2327 22.9596 22.2787 22.9596 22.3261 22.9596C22.4037 22.8576 22.4037 22.8576 22.4754 22.7216C22.5048 22.6694 22.5343 22.6173 22.5646 22.5636C22.5965 22.5061 22.6283 22.4486 22.6612 22.3895C22.7307 22.2671 22.8003 22.1449 22.8701 22.0228C22.9066 21.959 22.943 21.8952 22.9805 21.8295C24.0385 19.9987 25.2432 18.2178 26.7132 16.6922C26.7834 16.6142 26.7834 16.6142 26.855 16.5347C27.4069 15.9382 28.2235 15.3498 29.0461 15.2782C29.5856 15.26 30.0133 15.2868 30.4737 15.578C30.5206 15.6067 30.5674 15.6354 30.6157 15.665C31.8091 16.476 32.3441 18.0717 32.6051 19.4277C32.655 19.7733 32.6553 20.1172 32.6542 20.4657C32.6554 20.5368 32.6565 20.608 32.6576 20.6813C32.6583 21.7065 32.3551 22.698 32.093 23.6816C32.0612 23.8021 32.0294 23.9227 31.9976 24.0433C31.9145 24.3582 31.8311 24.673 31.7475 24.9877C31.6141 25.4907 31.4811 25.9938 31.3482 26.497C31.3024 26.6703 31.2564 26.8436 31.2103 27.0168C31.022 27.7276 30.8472 28.4407 30.6826 29.1574C30.7397 29.0948 30.7968 29.0322 30.8556 28.9677C31.2258 28.5617 31.6018 28.164 31.9927 27.7777C32.2656 27.5079 32.5261 27.235 32.7742 26.942C33.1048 26.574 33.4642 26.2317 33.8163 25.8844C33.9312 25.9533 34.0461 26.0223 34.1645 26.0933C34.1268 26.4271 33.972 26.6737 33.7945 26.9507C33.7639 26.9991 33.7333 27.0475 33.7017 27.0974C33.3507 27.643 32.9611 28.1583 32.5628 28.6699C32.4898 28.7642 32.4898 28.7642 32.4154 28.8603C29.8165 32.1601 29.8165 32.1601 28.0919 32.4567C27.2942 32.5012 26.6008 32.0992 26.0169 31.5947C25.0972 30.7409 24.579 29.5117 24.5269 28.266C24.5093 27.3189 24.7189 26.4294 24.9301 25.5113C25.0346 25.0557 25.1371 24.5997 25.2402 24.1439C25.3348 23.7255 25.4299 23.3073 25.5258 22.8893C25.5438 22.8104 25.5619 22.7315 25.5805 22.6502C25.6146 22.5011 25.6489 22.3519 25.6833 22.2029C25.8212 21.5989 25.8902 21.028 25.8907 20.4091C25.8915 20.3445 25.8924 20.2799 25.8932 20.2133C25.8939 19.892 25.8935 19.6292 25.7383 19.3384C24.7801 20.4387 24.0036 21.6552 23.2314 22.89C23.2033 22.9273 23.1752 22.9646 23.1462 23.003C22.8422 23.43 22.7852 23.8641 22.7145 24.3755C22.7005 24.4697 22.6864 24.5638 22.6722 24.6579C22.6415 24.8632 22.6116 25.0687 22.5824 25.2742C22.5331 25.6206 22.4818 25.9666 22.4304 26.3127C22.3185 27.0677 22.209 27.8231 22.0997 28.5785C22.0343 29.0303 21.9688 29.482 21.9031 29.9337C21.8772 30.1123 21.8514 30.2908 21.8257 30.4693C21.8099 30.5778 21.7942 30.6862 21.7784 30.7946C21.7714 30.8436 21.7644 30.8926 21.7571 30.9431C21.7249 31.1637 21.6898 31.3799 21.6297 31.5947C20.9732 31.737 20.3111 31.8278 19.6461 31.92C19.585 31.9285 19.5239 31.937 19.461 31.9458C19.1386 31.9906 18.8162 32.0351 18.4938 32.0794C18.1615 32.1251 17.8293 32.172 17.4972 32.219C17.2408 32.2551 16.9842 32.2904 16.7276 32.3255C16.6051 32.3424 16.4826 32.3596 16.3602 32.3771C16.1892 32.4016 16.018 32.4248 15.8468 32.4477C15.7967 32.4551 15.7465 32.4626 15.6949 32.4703C15.3838 32.5103 15.1628 32.4853 14.8748 32.3607C14.8052 32.2911 14.8052 32.2911 14.7942 32.0574C14.7993 31.6825 14.8555 31.3168 14.9112 30.9466C14.9226 30.8686 14.934 30.7905 14.9458 30.7102C14.9841 30.4493 15.0229 30.1886 15.0617 29.9279C15.0894 29.7406 15.1169 29.5533 15.1444 29.3659C15.2115 28.9099 15.279 28.4539 15.3467 27.998C15.4258 27.4651 15.5044 26.9321 15.583 26.3991C15.7237 25.4458 15.8647 24.4926 16.0059 23.5393C16.1423 22.619 16.2784 21.6986 16.4142 20.7781C16.4225 20.7216 16.4309 20.6652 16.4395 20.607C16.4478 20.5506 16.4561 20.4943 16.4647 20.4362C16.4814 20.3226 16.4982 20.2091 16.5149 20.0955C16.5232 20.0395 16.5315 19.9835 16.54 19.9257C16.6702 19.0435 16.8006 18.1613 16.931 17.2791C16.9779 16.9619 17.0248 16.6446 17.0717 16.3273C17.1463 15.8224 17.2209 15.3174 17.2958 14.8125C17.3299 14.5825 17.3639 14.3525 17.3979 14.1224C17.5904 12.8183 17.7967 11.517 18.0085 10.2159C17.3651 10.2159 16.7216 10.2159 16.0587 10.2159C16.0587 10.055 16.0587 9.89415 16.0587 9.72841C17.5396 9.35101 19.021 8.97532 20.5028 8.60127C20.8249 8.51994 21.147 8.43845 21.469 8.35677C21.9822 8.2266 22.4955 8.09733 23.0092 7.96913C23.1799 7.92638 23.3505 7.88332 23.521 7.83994C23.7572 7.77991 23.9937 7.72101 24.2302 7.6624C24.2988 7.64469 24.3675 7.62698 24.4382 7.60874C24.8062 7.51898 25.09 7.47333 25.4598 7.56964Z"></path>
<path fill="#52525B" d="M67.6636 16.6389C67.8534 16.791 68.0364 16.9478 68.2174 17.1101C68.2666 17.1527 68.3158 17.1954 68.3665 17.2393C68.8039 17.6431 69.0999 18.1341 69.4012 18.6421C69.4366 18.701 69.472 18.7599 69.5084 18.8206C70.2914 20.2423 70.2553 22.098 69.84 23.6266C69.5939 24.4702 69.2683 25.255 68.8441 26.0237C68.8099 26.0861 68.7757 26.1485 68.7405 26.2128C68.0664 27.3844 67.1545 28.5513 66.1283 29.436C66.0823 29.436 66.0363 29.436 65.989 29.436C65.989 29.4819 65.989 29.5279 65.989 29.5753C65.8554 29.6951 65.7217 29.8054 65.5799 29.9147C65.5365 29.9484 65.493 29.982 65.4483 30.0167C63.4323 31.557 61.2135 32.7029 58.6074 32.3782C57.2642 32.1581 56.1032 31.7054 55.0558 30.8287C55.0003 30.7845 54.9447 30.7402 54.8875 30.6946C53.7324 29.7344 53.0926 28.3163 52.9145 26.8463C52.9071 26.7347 52.9013 26.623 52.8971 26.5112C52.8935 26.4454 52.8899 26.3796 52.8862 26.3118C52.804 23.5633 54.4153 21.011 56.2207 19.0698C56.8106 18.4486 57.4305 17.8961 58.1199 17.3886C58.16 17.3586 58.2001 17.3285 58.2415 17.2976C61.0588 15.1899 64.6332 14.4167 67.6636 16.6389ZM61.7411 16.2048C60.3951 18.7795 60.0748 22.1173 59.7912 24.9792C59.7839 25.0485 59.7766 25.1178 59.769 25.1892C59.7023 25.9063 59.7086 26.6261 59.7087 27.3456C59.7085 27.5717 59.7073 27.7978 59.7059 28.0239C59.6387 29.8058 59.6387 29.8058 60.2352 31.425C60.429 31.605 60.5034 31.6708 60.7662 31.6644C61.1891 31.5204 61.4611 31.2112 61.6809 30.8312C61.7532 30.6828 61.8181 30.5333 61.8804 30.3804C61.9038 30.3233 61.9273 30.2661 61.9514 30.2073C63.2441 26.926 64.3117 20.3885 62.9336 17.0187C62.7753 16.7153 62.5846 16.4485 62.3025 16.2483C62.112 16.1906 61.9388 16.1958 61.7411 16.2048Z"></path>
<path fill="#52525B" d="M45.4543 15.2777C45.5691 15.2783 45.5691 15.2783 45.6863 15.2789C46.722 15.2942 47.6299 15.5255 48.5793 15.9262C48.6421 15.9526 48.7049 15.979 48.7697 16.0062C50.2385 16.683 51.3264 17.9167 51.9219 19.4081C52.1203 19.9917 52.2459 20.6023 52.2701 21.2187C52.2737 21.2785 52.2772 21.3384 52.2809 21.4001C52.3646 23.9265 51.0564 26.3278 49.4549 28.1835C49.3538 28.3008 49.2533 28.4186 49.1551 28.5383C47.5802 30.433 44.9692 32.1735 42.4721 32.4217C40.6612 32.52 38.8025 32.1289 37.3676 30.968C37.3115 30.9233 37.2555 30.8786 37.1978 30.8325C35.9484 29.7744 35.2192 28.3506 35.0695 26.72C34.9815 25.4692 35.2109 24.2538 35.6962 23.0989C35.7153 23.0536 35.7343 23.0083 35.7538 22.9617C36.4086 21.4286 37.4007 20.1152 38.5514 18.9206C38.5864 18.884 38.6215 18.8475 38.6576 18.8098C39.1277 18.3215 39.6137 17.8708 40.1531 17.4582C40.2234 17.4041 40.2938 17.35 40.3663 17.2942C41.862 16.1717 43.5491 15.2674 45.4543 15.2777ZM43.9135 16.2047C41.9844 19.427 41.7492 24.714 41.8461 28.3914C41.8473 28.4393 41.8485 28.4872 41.8497 28.5365C41.8478 30.0811 41.8478 30.0811 42.412 31.4598C42.6199 31.6271 42.6199 31.6271 42.8689 31.6643C43.4037 31.5158 43.608 31.1867 43.876 30.7218C45.0043 28.5039 45.1469 25.6758 45.3638 23.2356C45.3748 23.1112 45.3864 22.9868 45.398 22.8625C45.4574 22.152 45.4609 21.4411 45.4623 20.7285C45.463 20.5154 45.4651 20.3023 45.4673 20.0892C45.5138 18.1692 45.5138 18.1692 44.7568 16.4795C44.4685 16.2407 44.2924 16.1853 43.9135 16.2047Z"></path>
<path fill="#52525B" d="M85.5137 16.0785C85.568 16.0936 85.6223 16.1086 85.6783 16.1241C85.8318 16.1669 85.9848 16.211 86.1377 16.2556C86.2697 16.2938 86.2697 16.2938 86.4044 16.3327C86.4695 16.3594 86.5346 16.3861 86.6018 16.4137C86.6247 16.4826 86.6477 16.5515 86.6714 16.6226C86.5947 16.7679 86.5947 16.7679 86.4736 16.937C86.4289 17.0004 86.3841 17.0637 86.338 17.129C86.2639 17.2316 86.2639 17.2316 86.1883 17.3364C86.0848 17.4822 85.9813 17.6281 85.8779 17.7741C85.8245 17.8488 85.7711 17.9236 85.7161 18.0007C85.4717 18.3445 85.2317 18.6914 84.9914 19.0381C84.8087 19.3008 84.6258 19.5634 84.443 19.8259C84.3978 19.8908 84.3527 19.9556 84.3061 20.0225C84.1749 20.2109 84.0435 20.3993 83.912 20.5876C83.8733 20.6432 83.8346 20.6988 83.7947 20.756C83.5534 21.1013 83.3052 21.4405 83.0502 21.7758C82.8434 21.7413 82.8434 21.7413 82.6324 21.7061C82.4787 20.735 82.3894 19.7569 82.2913 18.7789C82.2687 18.5546 82.2459 18.3302 82.223 18.1059C82.2162 18.0369 82.2094 17.968 82.2023 17.8969C82.1958 17.8331 82.1893 17.7694 82.1826 17.7037C82.177 17.6477 82.1714 17.5917 82.1656 17.5341C82.1475 17.3755 82.1475 17.3755 82.0753 17.1797C81.883 17.0805 81.6963 16.9954 81.4964 16.9142C81.4382 16.89 81.3799 16.8659 81.3199 16.841C80.6805 16.5826 80.0232 16.3894 79.3594 16.2048C79.3338 16.2874 79.3338 16.2874 79.3077 16.3718C79.2409 16.5631 79.1696 16.7446 79.089 16.93C77.974 19.5063 76.5536 23.7201 77.4066 26.5511C77.5547 26.8956 77.7347 27.1367 78.0814 27.2881C78.369 27.3605 78.6331 27.3724 78.9285 27.3729C78.9798 27.3746 79.0311 27.3763 79.084 27.3781C80.093 27.3831 81.1007 26.9934 82.0448 26.6722C82.1543 26.6355 82.2637 26.5988 82.3732 26.5621C83.0904 26.3205 83.8011 26.0649 84.5026 25.7802C84.564 25.756 84.6254 25.7317 84.6886 25.7068C84.7409 25.6855 84.7931 25.6642 84.8469 25.6422C85.0373 25.597 85.1624 25.6174 85.3483 25.6755C85.4397 25.8191 85.4397 25.8191 85.4875 25.9541C85.1154 26.4269 84.7344 26.8599 84.3015 27.2774C84.1608 27.4058 84.1608 27.4058 84.0948 27.5557C84.0488 27.5557 84.0029 27.5557 83.9555 27.5557C83.9393 27.5946 83.9231 27.6334 83.9064 27.6734C83.7928 27.876 83.6518 28.0156 83.4871 28.1795C83.4546 28.2119 83.4221 28.2444 83.3886 28.2778C83.3199 28.3464 83.2509 28.4148 83.1818 28.4831C83.0778 28.5858 82.9743 28.6891 82.871 28.7925C82.5017 29.1604 82.1266 29.5184 81.7271 29.8538C81.6862 29.8882 81.6453 29.9226 81.6031 29.9581C79.8219 31.4392 77.8699 32.6349 75.4597 32.4304C74.1471 32.2631 72.8306 31.8305 71.9082 30.8287C71.9082 30.7827 71.9082 30.7368 71.9082 30.6894C71.8622 30.6894 71.8162 30.6894 71.7689 30.6894C71.6612 30.5464 71.564 30.4051 71.4686 30.2542C71.4405 30.2098 71.4124 30.1654 71.3835 30.1197C70.4404 28.5929 70.3812 26.773 70.7716 25.0547C71.2344 23.2002 72.1237 21.4167 73.3706 19.9652C73.4242 19.8989 73.4779 19.8325 73.5332 19.7642C74.3444 18.7672 75.257 17.8681 76.2953 17.11C76.3542 17.0662 76.4131 17.0224 76.4738 16.9773C77.1525 16.4861 77.8637 16.0503 78.6369 15.726C78.6817 15.7069 78.7265 15.6878 78.7727 15.6682C80.958 14.7926 83.348 15.4728 85.5137 16.0785Z"></path>
</g>
<defs>
<clipPath id="clip0_57431_9848">
<rect transform="translate(14.7354 7.5)" fill="white" height="25" width="90.5292"></rect>
</clipPath>
</defs>
</svg>
