<svg xmlns="http://www.w3.org/2000/svg" fill="none" viewBox="0 0 120 40" height="40" width="120">
<mask height="28" width="19" y="6" x="27" maskUnits="userSpaceOnUse" style="mask-type:alpha" id="mask0_57422_9745">
<path fill="white" d="M27.6489 6.00001H45.7049V34H27.6489V6.00001Z" clip-rule="evenodd" fill-rule="evenodd"></path>
</mask>
<g mask="url(#mask0_57422_9745)">
<path fill="#52525B" d="M40.5409 27.4624C40.5409 28.3941 39.79 29.1497 38.8639 29.1497H34.1875C33.2615 29.1497 32.511 28.3941 32.511 27.4624V24.3312C32.511 23.3995 33.2615 22.644 34.1875 22.644H38.8639C39.79 22.644 40.5409 23.3995 40.5409 24.3312V27.4624ZM32.511 11.8361C32.511 10.9039 33.2615 10.1489 34.1875 10.1489H38.8639C39.79 10.1489 40.5409 10.9039 40.5409 11.8361V14.1018C40.5409 15.034 39.79 15.789 38.8639 15.789H34.1875C33.2615 15.789 32.511 15.034 32.511 14.1018V11.8361ZM45.4023 14.2883V10.6716C45.4023 8.09 43.3249 6.00001 40.759 6.00001H32.2927C29.7268 6.00001 27.6489 8.09 27.6489 10.6716V14.2883C27.6489 16.1901 28.7711 17.8102 30.3809 18.542V19.2107C28.7711 19.9426 27.6489 21.5727 27.6489 23.4645V28.6382C27.6489 31.2198 29.7268 33.3102 32.2927 33.3102H40.759C43.3249 33.3102 45.4023 31.2198 45.4023 28.6382V23.4645C45.4023 21.5727 44.2806 19.9426 42.6703 19.2107V18.542C44.2806 17.8102 45.4023 16.18 45.4023 14.2883Z" clip-rule="evenodd" fill-rule="evenodd"></path>
</g>
<path fill="#52525B" d="M66.8701 31.2436H73.693V28.9837H69.1911V27.2426H72.8114V25.0294H69.1911V23.2876H73.693V21.0284H66.8701V31.2436Z" clip-rule="evenodd" fill-rule="evenodd"></path>
<path fill="#52525B" d="M80.7483 12.5174H78.381V8.42176H76.0142V18.6369H78.381V14.7767H80.7483V18.6369H83.1157V8.42176H80.7483V12.5174Z" clip-rule="evenodd" fill-rule="evenodd"></path>
<path fill="#52525B" d="M76.0605 31.2436H82.8836V28.9837H78.3815V27.2426H82.0019V25.0294H78.3815V23.2876H82.8836V21.0284H76.0605V31.2436Z" clip-rule="evenodd" fill-rule="evenodd"></path>
<path fill="#52525B" d="M89.103 25.5007H87.3392V23.1938H89.103C89.6602 23.1938 90.0775 23.3821 90.0775 24.2768C90.0775 25.1234 89.7525 25.5007 89.103 25.5007ZM89.3812 21.0284H85.0181V31.2441H87.3389V27.6193H89.3812C90.495 27.6193 92.3516 26.96 92.3516 24.3241C92.3516 21.4994 90.5415 21.0284 89.3812 21.0284Z" clip-rule="evenodd" fill-rule="evenodd"></path>
<path fill="#52525B" d="M70.2124 14.7286H71.6048C71.6048 16.235 71.0946 16.6122 70.1196 16.6122C69.0523 16.6122 68.6809 16 68.6809 14.7286V11.6689C68.6809 10.8213 69.2844 10.3039 70.1196 10.3039C71.0946 10.3039 71.4655 10.916 71.4655 11.6689H73.8792C73.8792 9.92715 72.719 8.18487 70.1196 8.18487C67.4742 8.18487 66.3135 9.50336 66.3135 11.6689V14.7286C66.3135 16.4704 66.8706 18.7302 70.1196 18.7302C73.2293 18.7302 73.9256 16.8 73.9256 14.8233V12.8456H70.2124V14.7286Z" clip-rule="evenodd" fill-rule="evenodd"></path>
<path fill="#52525B" d="M53.5955 25.075C52.4813 24.8872 52.2032 24.3692 52.2032 24.0395C52.2032 23.3809 52.6675 23.0512 53.4563 23.0512C54.3384 23.0512 54.57 23.6158 54.57 23.9454H56.7981C56.7981 22.7686 56.0088 20.7915 53.4563 20.7915C50.6252 20.7915 49.8823 22.674 49.8823 24.0867C49.8823 25.7343 51.1823 26.7696 53.0848 27.0522C53.7348 27.1463 54.6629 27.3347 54.6629 28.1823C54.6629 28.8411 54.292 29.2649 53.4563 29.2649C52.8991 29.2649 52.2032 29.1706 52.2032 27.8998H49.8823C49.8823 29.1706 50.2073 31.3828 53.4563 31.3828C56.6588 31.3828 57.0302 29.0765 57.0302 28.1353C57.0302 26.158 55.7307 25.4522 53.5955 25.075Z" clip-rule="evenodd" fill-rule="evenodd"></path>
<path fill="#52525B" d="M56.8444 16.3303H52.3419V14.5886H55.9622V12.3754H52.3419V10.6342H56.8444V8.37444H50.0215V18.5896H56.8444V16.3303Z" clip-rule="evenodd" fill-rule="evenodd"></path>
<path fill="#52525B" d="M61.3468 21.0284H59.0264V31.2436H64.7355V28.8896H61.3468V21.0284Z" clip-rule="evenodd" fill-rule="evenodd"></path>
<path fill="#52525B" d="M87.3383 18.6369H89.7516V10.7757H91.8868V8.42176H85.1572V10.7757H87.3383V18.6369Z" clip-rule="evenodd" fill-rule="evenodd"></path>
<path fill="#52525B" d="M60.6509 16.4248H59.0263V18.6369H64.6421V16.4248H62.9717V10.6349H64.5958V8.42176H58.98V10.6349H60.6509V16.4248Z" clip-rule="evenodd" fill-rule="evenodd"></path>
</svg>
