<svg xmlns="http://www.w3.org/2000/svg" fill="none" viewBox="0 0 120 40" height="40" width="120">
<path fill="#52525B" d="M22.4064 19.1093C22.4064 22.1102 22.4064 25.111 22.4234 28.1118C22.4234 28.4218 22.3253 28.6026 22.0566 28.7447C18.751 30.4927 15.4497 32.2449 12.1483 33.9972C12.1312 34.0058 12.1057 33.9929 12.0076 33.9757V33.1577C12.0076 30.4496 12.0118 27.7372 11.999 25.0292C11.999 24.6848 12.0587 24.4523 12.3914 24.2801C14.3151 23.2812 16.2302 22.2652 18.1453 21.2534C19.442 20.5473 20.7386 19.8412 22.0353 19.1309C22.1632 19.062 22.2827 19.0405 22.4064 19.1179V19.1093Z"></path>
<path fill="#52525B" d="M6.54792 20.5778C6.53939 17.534 6.53939 14.4901 6.51807 11.4419C6.51807 11.1233 6.63323 10.9382 6.88915 10.8047C9.84927 9.25049 12.8051 7.69196 15.7652 6.13773C15.8591 6.09037 15.9615 6.06023 16.1278 5.99996V10.2063C16.1278 11.7949 16.1235 13.3879 16.1321 14.9766C16.1321 15.3124 16.0979 15.5578 15.7482 15.7343C14.0932 16.5782 12.4511 17.4522 10.8047 18.3175C9.40568 19.1097 8.00239 19.8933 6.54366 20.5778H6.54792Z"></path>
<path fill="#52525B" d="M36.7076 28.2497C35.9569 28.2497 35.2744 28.2368 34.592 28.254C34.2763 28.2626 34.1825 28.0516 34.0716 27.8278C33.2569 26.1702 32.4337 24.5213 31.6361 22.8594C31.4186 22.403 31.1584 22.1576 30.621 22.2222C30.1603 22.2739 29.6869 22.2566 29.2177 22.2222C28.7442 22.1878 28.6035 22.3772 28.612 22.8422C28.6333 24.4093 28.5992 25.9808 28.6333 27.5479C28.6461 28.0818 28.5438 28.2841 27.9552 28.2669C26.4879 28.2239 26.4879 28.2583 26.4879 26.7773C26.4879 22.7647 26.5007 18.7521 26.4751 14.7438C26.4751 14.1583 26.6201 13.9775 27.2173 13.9947C28.8637 14.0378 30.5143 13.9818 32.1607 14.0162C35.1891 14.0851 37.0914 16.8491 36.0635 19.6562C35.6967 20.6551 35.0014 21.3654 34.0332 21.7529C33.5683 21.9381 33.5939 22.1189 33.7816 22.4805C34.7029 24.2586 35.6114 26.041 36.5199 27.8235C36.5796 27.9397 36.6265 28.0603 36.7076 28.2454V28.2497ZM28.6589 18.1709C28.6589 18.7779 28.6675 19.3807 28.6589 19.9877C28.6547 20.3063 28.7784 20.4226 29.094 20.414C30.1177 20.3924 31.1456 20.4398 32.165 20.3623C33.4787 20.259 34.2422 19.3548 34.1996 18.0934C34.1569 16.8793 33.3422 16.044 32.0584 15.9838C31.0816 15.9364 30.1006 15.9752 29.1196 15.9536C28.7698 15.945 28.6461 16.0742 28.6547 16.4186C28.6717 16.9998 28.6589 17.5854 28.6589 18.1666V18.1709Z"></path>
<path fill="#52525B" d="M82.7519 19.0189C82.9822 18.7218 82.6751 18.2525 82.9993 18.1923C83.5367 18.0975 84.104 18.1535 84.6542 18.1923C84.8291 18.2052 84.795 18.4463 84.795 18.597C84.7566 22.0455 84.9016 25.4941 84.7182 28.9427C84.6329 30.5486 83.349 31.9521 81.677 32.3009C80.1671 32.6151 78.7169 32.4645 77.4416 31.4785C77.1132 31.2245 76.9937 30.9963 77.3989 30.7165C77.4373 30.6907 77.4714 30.6605 77.497 30.6261C77.9406 30.075 78.2733 29.8425 79.0624 30.3505C80.7387 31.4269 82.5173 30.4453 82.7647 28.4648C82.786 28.3098 82.8159 28.1505 82.8073 27.9998C82.7903 27.6941 82.9524 27.2679 82.7135 27.1129C82.4619 26.9493 82.2656 27.3755 82.0268 27.5176C80.3974 28.4992 77.5567 28.0429 76.9681 25.5199C76.6013 23.9528 76.5928 22.3641 76.8786 20.7927C77.3819 18.0502 80.4102 17.0298 82.5216 18.8467C82.5855 18.9026 82.6581 18.95 82.7519 19.0189ZM82.786 22.9497C82.7519 22.2134 82.7306 21.4729 82.4448 20.7798C82.1334 20.0263 81.4894 19.8068 80.7685 19.8154C80.0648 19.824 79.3738 19.9704 79.0837 20.7582C78.5506 22.2177 78.5591 23.6945 79.0539 25.154C79.3098 25.9074 79.8771 26.1614 80.905 26.1313C81.7794 26.1055 82.1931 25.8127 82.4874 25.0636C82.7562 24.379 82.7434 23.6643 82.786 22.9497Z"></path>
<path fill="#52525B" d="M55.5519 27.3452C54.7543 28.0297 53.914 28.3612 52.9415 28.3569C51.2866 28.3483 50.1221 27.5518 49.6999 25.9416C49.2094 24.0817 49.2264 22.1831 49.7041 20.3146C50.378 17.6883 53.5386 17.5376 54.9633 18.5709C55.1168 18.6828 55.2405 18.9368 55.4538 18.8249C55.6542 18.7216 55.5732 18.459 55.5732 18.2652C55.5775 17.0124 55.586 15.7552 55.5689 14.5023C55.5647 14.1407 55.6457 14.0029 56.0424 13.9943C57.5694 13.9642 57.5694 13.947 57.5694 15.471C57.5694 19.4147 57.5694 23.3584 57.5694 27.3021C57.5694 28.4086 57.693 28.2321 56.5969 28.2493C56.5542 28.2493 56.5073 28.245 56.4646 28.2493C55.8376 28.3354 55.4026 28.2149 55.5561 27.3452H55.5519ZM51.3591 22.7772C51.2994 23.3197 51.423 23.8535 51.4444 24.3874C51.4529 24.6285 51.5169 24.8739 51.5766 25.1107C51.824 26.0579 52.4638 26.5272 53.4832 26.5229C54.4983 26.5229 55.0614 26.0923 55.3173 25.1236C55.6286 23.9353 55.6329 22.7299 55.4239 21.5287C55.2277 20.3964 54.5197 19.7979 53.4661 19.7979C52.4169 19.7979 51.7771 20.3318 51.5382 21.4512C51.4444 21.886 51.4145 22.3338 51.3591 22.7772Z"></path>
<path fill="#52525B" d="M43.8734 23.7679C42.9606 23.7679 42.0479 23.7808 41.1351 23.7636C40.7555 23.7593 40.6531 23.8626 40.7 24.2716C40.8067 25.2102 41.1692 25.9894 42.0436 26.3511C43.1057 26.7902 44.2274 26.7558 45.1317 26.0067C45.6435 25.5804 45.8653 25.744 46.2279 26.0885C47.0255 26.8333 47.034 26.8247 46.0956 27.4748C44.1421 28.8267 41.3355 28.6243 39.8598 27.0313C39.4076 26.5448 39.1133 25.9679 38.9683 25.335C38.5503 23.488 38.4821 21.6497 39.4588 19.9404C40.3289 18.412 41.9796 17.7275 43.7966 18.0547C45.3876 18.3389 46.6928 19.7036 47.0169 21.3999C47.1364 22.0199 47.162 22.6399 47.1705 23.2685C47.1748 23.6473 47.0511 23.7851 46.6757 23.7808C45.7416 23.7636 44.8075 23.7765 43.8691 23.7765L43.8734 23.7679ZM42.9393 22.3471C43.562 22.3471 44.189 22.3428 44.8118 22.3471C45.0549 22.3471 45.1658 22.2912 45.1615 22.007C45.1359 20.7111 44.1762 19.6907 42.9564 19.6778C41.7621 19.6649 40.8194 20.5862 40.7256 21.809C40.6958 22.205 40.7555 22.3816 41.2033 22.3514C41.7791 22.3127 42.3592 22.3428 42.9393 22.3428V22.3471Z"></path>
<path fill="#52525B" d="M102.628 23.1909C102.56 24.6203 102.521 26.0626 101.395 27.1647C100.158 28.3745 98.6952 28.6243 97.0915 28.1377C95.4707 27.6469 94.6304 26.4457 94.3958 24.8269C94.2209 23.6344 94.2209 22.4289 94.4726 21.2277C94.9077 19.1697 96.4858 17.9083 98.5673 17.9901C100.713 18.0762 102.244 19.4453 102.5 21.5204C102.568 22.0715 102.675 22.6269 102.628 23.1909ZM100.627 23.1565C100.589 22.657 100.568 22.1662 100.504 21.6797C100.359 20.569 99.5867 19.8543 98.5033 19.8069C97.4626 19.7639 96.6735 20.3924 96.4346 21.4989C96.2 22.5839 96.2256 23.6817 96.4005 24.7667C96.5882 25.9291 97.4199 26.5663 98.5502 26.5276C99.5995 26.4931 100.363 25.7569 100.504 24.6246C100.563 24.1381 100.585 23.643 100.623 23.1608L100.627 23.1565Z"></path>
<path fill="#52525B" d="M107.286 19.0788C108.019 18.5105 108.642 18.1359 109.384 18.0412C111.705 17.7356 113.36 19.0702 113.445 21.4381C113.517 23.565 113.458 25.6961 113.47 27.8273C113.47 28.1373 113.385 28.2406 113.061 28.2578C111.466 28.3439 111.466 28.3525 111.466 26.7337C111.466 25.1407 111.487 23.5521 111.457 21.9591C111.44 21.0851 111.129 20.3274 110.263 19.9571C109.418 19.5955 108.493 19.8107 107.87 20.4565C107.392 20.9516 107.363 21.5802 107.358 22.2045C107.35 24.0214 107.341 25.8339 107.363 27.6508C107.367 28.1114 107.243 28.2621 106.765 28.2578C105.328 28.2449 105.328 28.2664 105.328 26.8241C105.328 24.1548 105.345 21.4898 105.315 18.8205C105.307 18.2393 105.494 18.0585 106.032 18.136C106.207 18.1618 106.39 18.1618 106.565 18.136C107.158 18.0412 107.444 18.2522 107.282 19.0745L107.286 19.0788Z"></path>
<path fill="#52525B" d="M67.8997 18.9458C68.2409 18.9415 68.3646 18.7305 68.5438 18.6186C69.7722 17.8565 71.0475 17.7446 72.3356 18.4076C73.5513 19.0319 74.0204 20.1298 74.0332 21.4429C74.0503 23.5482 74.0332 25.6535 74.0503 27.7588C74.0503 28.1248 73.965 28.2539 73.5726 28.2625C72.0456 28.2927 72.0456 28.3099 72.0456 26.7987C72.0456 25.1196 72.0627 23.4406 72.0328 21.7615C72.0157 20.655 71.3845 19.9791 70.3011 19.8112C69.3755 19.6648 68.4073 20.2589 68.0917 21.1501C67.9765 21.4773 68.0064 21.8131 68.0064 22.1447C67.9978 23.9787 67.9893 25.8171 68.0106 27.6512C68.0149 28.1162 67.8912 28.2625 67.4177 28.2625C66.0017 28.2539 66.0017 28.2755 66.0017 26.8246C66.0017 24.138 66.0145 21.4515 65.9889 18.765C65.9846 18.2569 66.1254 18.0632 66.6244 18.145C66.731 18.1622 66.8462 18.145 66.9571 18.145C67.4945 18.1536 68.2026 17.934 67.904 18.9458H67.8997Z"></path>
<path fill="#52525B" d="M22.4063 19.1094C22.2784 19.0319 22.159 19.0534 22.0353 19.1223C20.7386 19.8327 19.442 20.5387 18.1453 21.2448C18.2093 20.8444 17.8425 20.8444 17.6377 20.7325C16.3923 20.0522 15.1297 19.4021 13.8715 18.7434C13.7392 18.6745 13.5388 18.6487 13.543 18.4636C13.543 18.2827 13.7478 18.2483 13.8757 18.1794C15.0146 17.581 16.1491 16.9739 17.2965 16.4013C17.723 16.186 17.9064 15.9148 17.8936 15.4111C17.8595 14.0721 17.8809 12.7288 17.8809 11.3554C18.3287 11.3899 18.6358 11.6654 18.977 11.8463C19.9197 12.3414 20.8495 12.858 21.7921 13.3574C22.2187 13.5856 22.4362 13.8784 22.4234 14.4079C22.385 15.9708 22.4063 17.5379 22.4021 19.1051L22.4063 19.1094Z" opacity="0.8"></path>
<path fill="#52525B" d="M6.54775 20.5771C8.00648 19.8926 9.40977 19.109 10.8088 18.3168C10.7277 18.7215 11.1031 18.7258 11.3036 18.8335C12.5106 19.4922 13.7348 20.1164 14.9461 20.7622C15.1039 20.8484 15.394 20.8484 15.3684 21.111C15.3471 21.3392 15.0869 21.3607 14.9163 21.4511C13.4703 22.2261 12.0372 23.0182 10.5742 23.7588C10.1988 23.9482 10.1306 24.1764 10.1349 24.538C10.1519 25.4335 10.1263 26.3291 10.1434 27.2203C10.1519 27.6465 9.95572 27.6809 9.65715 27.5216C8.71879 27.0222 7.79321 26.497 6.84632 26.0105C6.53495 25.8512 6.54348 25.6144 6.54348 25.3431C6.54348 23.7545 6.54775 22.1658 6.55201 20.5814L6.54775 20.5771Z" opacity="0.8"></path>
<path fill="#52525B" d="M88.224 22.8981C88.224 22.0714 88.2069 21.2405 88.2325 20.4139C88.2453 20.0049 88.1643 19.7465 87.6951 19.8283C87.115 19.9317 87.0937 19.5743 87.1278 19.1524C87.1577 18.7477 86.9359 18.1837 87.7121 18.3C88.1216 18.3602 88.2538 18.188 88.2368 17.7747C88.2069 17.0815 88.224 16.3884 88.2368 15.6909C88.2368 15.5316 88.1472 15.269 88.4031 15.2518C88.9576 15.2173 89.5164 15.2044 90.0666 15.2518C90.314 15.2733 90.2457 15.5747 90.25 15.7598C90.2585 16.4314 90.2756 17.1031 90.25 17.7747C90.2287 18.1966 90.3865 18.3387 90.7874 18.2956C91.0092 18.2698 91.2353 18.3172 91.4528 18.287C92.0713 18.1966 92.2248 18.4549 92.2291 19.062C92.2291 19.682 92.0585 19.8628 91.4486 19.8413C90.2628 19.7982 90.2585 19.8327 90.2585 21.0382C90.2585 22.4245 90.25 23.8151 90.2585 25.2014C90.2671 26.2304 90.5571 26.5318 91.5765 26.5059C92.067 26.493 92.2888 26.6093 92.2035 27.1302C92.1737 27.3067 92.1779 27.4919 92.2035 27.6684C92.2675 28.1549 92.0542 28.2625 91.5978 28.2668C89.5548 28.2754 88.578 27.5866 88.2666 25.8558C88.2325 25.6578 88.2325 25.4554 88.2325 25.2531C88.2325 24.4695 88.2325 23.6859 88.2325 22.9024L88.224 22.8981Z"></path>
<path fill="#52525B" d="M60.7468 23.1481C60.7468 21.6456 60.7553 20.1473 60.7383 18.6448C60.7383 18.2788 60.8279 18.1453 61.2203 18.1324C62.7771 18.0851 62.7771 18.0721 62.7771 19.6436C62.7771 22.3086 62.7686 24.9779 62.7856 27.6429C62.7856 28.095 62.6833 28.2672 62.1927 28.2629C60.7425 28.2543 60.7425 28.2758 60.7425 26.8464C60.7425 25.6151 60.7425 24.3838 60.7425 23.1481H60.7468Z"></path>
<path fill="#52525B" d="M62.8029 14.9981C62.8029 16.1348 62.8029 16.1391 61.6897 16.1305C60.5423 16.1261 60.6873 16.2682 60.683 15.0756C60.6788 13.9563 60.683 13.9563 61.8176 13.9563C62.4745 13.9563 62.8029 14.3036 62.8029 14.9981Z"></path>
</svg>
