<svg xmlns="http://www.w3.org/2000/svg" fill="none" viewBox="0 0 98 26" height="26" width="98">
<path fill="#52525B" d="M15.7305 17.1664L10.4878 8.60122L15.7305 0.000118256L21.0114 8.60122"></path>
<path fill="#52525B" d="M21.0115 25.7299L15.73 17.1666H26.2556L31.5011 25.7299"></path>
<path fill="#52525B" d="M10.4875 25.7299H0L5.24274 17.1666H15.7303"></path>
<path fill="#52525B" d="M38.4239 10.8473V3.88939L36.0579 8.94026L33.7808 3.88939V10.8473H31.9053V0.181502H33.9714L36.0579 5.03924L38.232 0.181502H40.3121V10.8473"></path>
<path fill="#52525B" d="M42.0171 10.8516H43.9091V0.185802H42.0171V10.8516Z"></path>
<path fill="#52525B" d="M48.9159 1.79947V10.8473H47.0276V1.79947H44.7607V0.181502H51.1929V1.79947"></path>
<path fill="#52525B" d="M54.6938 11.1488C52.2325 11.1488 51.385 9.52316 51.2871 7.51765H53.0877C53.0877 8.48203 53.5629 9.4234 54.6938 9.4234C55.6379 9.4234 56.2072 8.95144 56.2072 8.19553C56.2072 7.51765 55.7383 7.23498 53.7484 6.09921C52.3278 5.23587 51.385 4.38276 51.385 2.85816C51.385 1.23636 52.4282 0.100583 54.6036 0.100583C56.9633 0.100583 57.8172 1.61878 57.9112 3.42605H56.0255C56.0255 2.57038 55.5553 1.70832 54.6036 1.70832C53.7484 1.70832 53.2783 2.0997 53.2783 2.76095C53.2783 3.52069 53.8437 3.90057 55.3533 4.66926C57.0586 5.62853 58.098 6.37932 58.098 8.10472C58.098 10.0974 56.4969 11.1488 54.6938 11.1488Z"></path>
<path fill="#52525B" d="M62.5769 11.0317C60.8805 11.0317 58.8906 10.3666 58.8906 7.5067V0.183002H60.7839V7.5067C60.7839 8.65143 61.3519 9.32419 62.5769 9.32419C63.6239 9.32419 64.2008 8.65143 64.2008 7.5067V0.183002H66.084V7.5067C66.084 10.2745 64.2008 11.0317 62.5769 11.0317Z"></path>
<path fill="#52525B" d="M70.6239 6.18013H69.8704V4.46879H70.6239C71.5718 4.46879 72.1335 4.08892 72.1335 3.13861C72.1335 2.18701 71.474 1.79947 70.6239 1.79947H69.2071V9.23188H70.7167C71.7548 9.23188 72.4194 8.75481 72.4194 7.61136C72.4194 6.56 71.7548 6.18013 70.6239 6.18013ZM71.1893 10.8473H67.3188V0.182781H70.8183C72.798 0.182781 74.0242 1.13182 74.0242 2.84699C74.0242 4.27055 72.995 5.13389 72.5147 5.2247C73.1805 5.42167 74.4042 6.18013 74.4042 7.89402C74.4042 9.6028 73.0852 10.8473 71.1893 10.8473Z"></path>
<path fill="#52525B" d="M92.1853 10.8473V6.18013H88.3262V10.8473H86.3325V0.181502H88.3262V4.37159H92.0963V0.181502H94.0837V10.8473"></path>
<path fill="#52525B" d="M75.4478 10.8516H77.3411V0.185802H75.4478V10.8516Z"></path>
<path fill="#52525B" d="M95.8813 10.8516H97.7734V0.185802H95.8813V10.8516Z"></path>
<path fill="#52525B" d="M81.9765 10.9397C79.5127 10.9397 78.6651 9.41634 78.5698 7.32257H80.364C80.364 8.27673 80.8367 9.32681 81.9765 9.32681C82.927 9.32681 83.4975 8.84973 83.4975 8.09638C83.4975 7.41594 83.0261 7.02968 81.0375 5.89262C79.6156 5.13672 78.6651 4.27338 78.6651 2.7539C78.6651 1.13465 79.7045 0.000156403 81.885 0.000156403C84.2498 0.000156403 85.1011 1.5158 85.1977 3.31667H83.4022C83.2993 2.37403 82.8253 1.61045 81.885 1.61045C81.1303 1.61045 80.5584 1.98648 80.5584 2.65541C80.5584 3.31667 81.1303 3.70805 82.6449 4.57011C84.3438 5.50892 85.3858 6.18296 85.3858 8.00429C85.3858 9.89341 83.7758 10.9397 81.9765 10.9397Z"></path>
<path fill="#52525B" d="M54.7766 16.354C53.3574 16.354 52.4914 17.9701 52.4914 20.1842C52.4914 22.3841 53.3574 23.9115 54.7766 23.9115C56.2072 23.9115 57.0694 22.3841 57.0694 20.1842C57.0694 17.9701 56.2072 16.354 54.7766 16.354ZM54.7766 25.7296C51.8361 25.7296 50.5 23.1581 50.5 20.1842C50.5 17.209 51.8361 14.6362 54.7766 14.6362C57.7298 14.6362 59.0583 17.209 59.0583 20.1842C59.0583 23.1581 57.7298 25.7296 54.7766 25.7296Z"></path>
<path fill="#52525B" d="M79.3424 25.4451L76.2065 19.7081H76.7711C77.4391 19.7081 78.5836 19.5139 78.5836 17.9698C78.5836 16.6339 77.4391 16.3523 76.6778 16.3523H75.5372V25.4451H73.6313V14.7246H77.1581C79.244 14.7246 80.6683 15.775 80.6683 17.7846C80.6683 19.7081 79.5353 20.4615 78.8659 20.7573L81.6263 25.4451"></path>
<path fill="#52525B" d="M84.8797 25.5453C82.4055 25.5453 81.5509 24.0243 81.4487 21.9067H83.26C83.26 22.8671 83.7365 23.9163 84.8797 23.9163C85.8313 23.9163 86.4125 23.4393 86.4125 22.6845C86.4125 22.007 85.922 21.62 83.9306 20.4679C82.5038 19.7145 81.5509 18.8582 81.5509 17.3153C81.5509 15.6914 82.5945 14.5445 84.7826 14.5445C87.1649 14.5445 88.0258 16.0681 88.1114 17.8952H86.212C86.212 16.927 85.7394 16.1749 84.7826 16.1749C84.0226 16.1749 83.4478 16.5503 83.4478 17.2137C83.4478 17.8952 84.0226 18.2706 85.5439 19.1359C87.2568 20.0886 88.3094 20.7637 88.3094 22.5907C88.3094 24.491 86.6935 25.5453 84.8797 25.5453Z"></path>
<path fill="#52525B" d="M68.6296 16.354C67.2028 16.354 66.3444 17.9701 66.3444 20.1842C66.3444 22.3841 67.2028 23.9115 68.6296 23.9115C70.0602 23.9115 70.9084 22.3841 70.9084 20.1842C70.9084 17.9701 70.0602 16.354 68.6296 16.354ZM68.6296 25.7296C65.6853 25.7296 64.3594 23.1581 64.3594 20.1842C64.3594 17.209 65.6853 14.6362 68.6296 14.6362C71.5815 14.6362 72.9023 17.209 72.9023 20.1842C72.9023 23.1581 71.5815 25.7296 68.6296 25.7296Z"></path>
<path fill="#52525B" d="M62.6052 16.3536V25.4451H60.7007V16.3536H58.4219V14.7259H64.8917V16.3536"></path>
<path fill="#52525B" d="M47.9362 25.4451V18.4506L45.5526 23.5409L43.2674 18.4506V25.4451H41.3604V14.7246H43.4578L45.5526 19.6078L47.7394 14.7246H49.8445V25.4451"></path>
</svg>
