<svg xmlns="http://www.w3.org/2000/svg" fill="none" viewBox="0 0 87 39" height="39" width="87">
<g clip-path="url(#clip0_57422_9859)">
<path fill="#52525B" d="M63.2279 16.2075C63.233 16.2497 63.229 16.2926 63.2163 16.3332C63.2035 16.3738 63.1823 16.4112 63.1541 16.443C63.1258 16.4749 63.0912 16.5003 63.0524 16.5178C63.0136 16.5352 62.9715 16.5442 62.9289 16.5442C62.8864 16.5442 62.8443 16.5352 62.8055 16.5178C62.7667 16.5003 62.732 16.4749 62.7038 16.443C62.6755 16.4112 62.6543 16.3738 62.6416 16.3332C62.6289 16.2926 62.6249 16.2497 62.6299 16.2075V12.2932C62.6249 12.2509 62.6289 12.2081 62.6416 12.1675C62.6543 12.1269 62.6755 12.0894 62.7038 12.0576C62.732 12.0258 62.7667 12.0003 62.8055 11.9829C62.8443 11.9654 62.8864 11.9564 62.9289 11.9564C62.9715 11.9564 63.0136 11.9654 63.0524 11.9829C63.0912 12.0003 63.1258 12.0258 63.1541 12.0576C63.1823 12.0894 63.2035 12.1269 63.2163 12.1675C63.229 12.2081 63.233 12.2509 63.2279 12.2932V16.2075ZM64.8861 13.9132C64.9834 13.7506 65.1223 13.6169 65.2886 13.5259C65.4548 13.435 65.6424 13.3901 65.8318 13.3958C66.5824 13.3958 66.9938 13.8835 66.9938 14.7317V16.2117C66.9988 16.2534 66.9949 16.2956 66.9824 16.3357C66.9698 16.3758 66.949 16.4127 66.9211 16.4441C66.8933 16.4755 66.8591 16.5007 66.8208 16.5179C66.7825 16.5351 66.741 16.544 66.699 16.544C66.6571 16.544 66.6156 16.5351 66.5773 16.5179C66.539 16.5007 66.5048 16.4755 66.4769 16.4441C66.4491 16.4127 66.4282 16.3758 66.4157 16.3357C66.4032 16.2956 66.3993 16.2534 66.4043 16.2117V14.7698C66.4043 14.2652 66.1541 13.9683 65.7385 13.9683C65.6232 13.9613 65.5078 13.979 65.4001 14.0205C65.2923 14.0619 65.1947 14.126 65.1138 14.2084C65.033 14.2909 64.9709 14.3897 64.9316 14.4983C64.8923 14.6069 64.8767 14.7226 64.8861 14.8377V16.2032C64.8861 16.2808 64.8552 16.3553 64.8004 16.4101C64.7455 16.465 64.6711 16.4958 64.5935 16.4958C64.5158 16.4958 64.4414 16.465 64.3865 16.4101C64.3317 16.3553 64.3008 16.2808 64.3008 16.2032V13.7223C64.3008 13.6447 64.3317 13.5703 64.3865 13.5154C64.4414 13.4606 64.5158 13.4297 64.5935 13.4297C64.6711 13.4297 64.7455 13.4606 64.8004 13.5154C64.8552 13.5703 64.8861 13.6447 64.8861 13.7223V13.9132ZM68.8555 16.0251C69.1608 16.0251 69.3856 15.864 69.3856 15.6222C69.3856 15.3805 69.2117 15.2957 68.9869 15.2406L68.5629 15.1473C68.054 15.0116 67.7486 14.7571 67.7486 14.2991C67.7581 14.1711 67.7933 14.0464 67.8519 13.9322C67.9105 13.8181 67.9915 13.7169 68.09 13.6346C68.1885 13.5524 68.3025 13.4907 68.4252 13.4533C68.548 13.4159 68.677 13.4036 68.8046 13.417C68.9927 13.4013 69.1814 13.4387 69.3493 13.5249C69.5173 13.6112 69.6576 13.7427 69.7545 13.9047C69.7757 13.9467 69.7859 13.9934 69.7842 14.0404C69.7857 14.0991 69.7675 14.1566 69.7326 14.2037C69.6976 14.2508 69.6479 14.2849 69.5913 14.3005C69.5347 14.3161 69.4746 14.3124 69.4204 14.2898C69.3662 14.2673 69.3211 14.2273 69.2923 14.1761C69.2401 14.0982 69.1694 14.0346 69.0865 13.9909C69.0036 13.9472 68.911 13.9249 68.8173 13.9259C68.7599 13.9189 68.7017 13.9236 68.6462 13.9399C68.5907 13.9562 68.5392 13.9836 68.4947 14.0206C68.4502 14.0575 68.4137 14.1031 68.3875 14.1547C68.3613 14.2062 68.346 14.2626 68.3423 14.3203C68.3423 14.5154 68.5332 14.6256 68.724 14.6681L69.1693 14.7783C69.3861 14.7952 69.5889 14.8923 69.7379 15.0507C69.8869 15.2092 69.9715 15.4175 69.9751 15.635C69.9751 16.199 69.4322 16.5425 68.8046 16.5425C68.5701 16.5523 68.3386 16.4874 68.1435 16.357C67.9483 16.2267 67.7997 16.0377 67.7189 15.8173C67.7175 15.7876 67.7175 15.7579 67.7189 15.7283C67.7216 15.694 67.7311 15.6606 67.7469 15.6302C67.7628 15.5997 67.7847 15.5728 67.8112 15.551C67.8378 15.5292 67.8684 15.513 67.9014 15.5034C67.9344 15.4937 67.969 15.4909 68.0031 15.495C68.0579 15.4932 68.1119 15.5086 68.1575 15.539C68.2031 15.5694 68.2381 15.6134 68.2575 15.6646C68.3124 15.7811 68.4014 15.878 68.5129 15.9424C68.6243 16.0068 68.7527 16.0357 68.8809 16.0251M71.2728 17.6663C71.2778 17.708 71.2739 17.7503 71.2614 17.7903C71.2488 17.8304 71.228 17.8673 71.2001 17.8987C71.1722 17.9301 71.138 17.9553 71.0998 17.9725C71.0615 17.9897 71.02 17.9986 70.978 17.9986C70.936 17.9986 70.8946 17.9897 70.8563 17.9725C70.818 17.9553 70.7838 17.9301 70.7559 17.8987C70.7281 17.8673 70.7072 17.8304 70.6947 17.7903C70.6822 17.7503 70.6783 17.708 70.6833 17.6663V13.7223C70.6783 13.6807 70.6822 13.6384 70.6947 13.5983C70.7072 13.5583 70.7281 13.5213 70.7559 13.4899C70.7838 13.4585 70.818 13.4334 70.8563 13.4162C70.8946 13.399 70.936 13.3901 70.978 13.3901C71.02 13.3901 71.0615 13.399 71.0998 13.4162C71.138 13.4334 71.1722 13.4585 71.2001 13.4899C71.228 13.5213 71.2488 13.5583 71.2614 13.5983C71.2739 13.6384 71.2778 13.6807 71.2728 13.7223V13.9301C71.3891 13.7589 71.547 13.62 71.7317 13.5265C71.9164 13.4331 72.1219 13.3881 72.3287 13.3958C72.5336 13.3944 72.7365 13.4348 72.9251 13.5147C73.1137 13.5947 73.284 13.7123 73.4254 13.8605C73.5668 14.0087 73.6764 14.1842 73.7474 14.3764C73.8185 14.5685 73.8495 14.7731 73.8385 14.9776C73.8484 15.1807 73.8165 15.3836 73.7447 15.5738C73.6729 15.7641 73.5629 15.9375 73.4213 16.0834C73.2798 16.2294 73.1097 16.3447 72.9218 16.4222C72.7339 16.4997 72.532 16.5377 72.3287 16.534C72.1231 16.546 71.9178 16.5047 71.7328 16.4141C71.5478 16.3234 71.3893 16.1865 71.2728 16.0166V17.6663ZM72.2694 15.97C72.3991 15.9748 72.5284 15.9527 72.6492 15.9051C72.77 15.8575 72.8796 15.7854 72.9712 15.6934C73.0628 15.6014 73.1344 15.4915 73.1815 15.3705C73.2286 15.2495 73.2501 15.1201 73.2447 14.9904C73.2536 14.856 73.2347 14.7213 73.1894 14.5945C73.1441 14.4677 73.0732 14.3516 72.9812 14.2533C72.8891 14.155 72.7779 14.0767 72.6544 14.0231C72.5308 13.9696 72.3976 13.9419 72.263 13.9419C72.1283 13.9419 71.9951 13.9696 71.8716 14.0231C71.7481 14.0767 71.6369 14.155 71.5448 14.2533C71.4528 14.3516 71.3819 14.4677 71.3366 14.5945C71.2912 14.7213 71.2724 14.856 71.2812 14.9904C71.2777 15.1207 71.3009 15.2504 71.3494 15.3714C71.3979 15.4924 71.4707 15.6022 71.5633 15.694C71.6559 15.7858 71.7663 15.8577 71.8877 15.9051C72.0092 15.9526 72.139 15.9747 72.2694 15.97ZM74.8859 11.9709C74.9591 11.9791 75.0283 12.0082 75.0852 12.0548C75.1422 12.1014 75.1844 12.1634 75.2069 12.2335C75.2294 12.3036 75.2312 12.3786 75.212 12.4497C75.1928 12.5207 75.1535 12.5847 75.0988 12.6339C75.0442 12.6831 74.9764 12.7155 74.9038 12.7271C74.8311 12.7387 74.7566 12.7291 74.6893 12.6993C74.622 12.6696 74.5647 12.6211 74.5244 12.5595C74.484 12.498 74.4623 12.4261 74.4619 12.3526C74.4628 12.2991 74.4748 12.2463 74.497 12.1976C74.5192 12.149 74.5512 12.1054 74.591 12.0696C74.6307 12.0338 74.6774 12.0065 74.7282 11.9896C74.7789 11.9726 74.8326 11.9662 74.8859 11.9709ZM75.1828 13.7223C75.1878 13.6807 75.1839 13.6384 75.1714 13.5983C75.1589 13.5583 75.138 13.5213 75.1101 13.4899C75.0823 13.4585 75.0481 13.4334 75.0098 13.4162C74.9715 13.399 74.93 13.3901 74.8881 13.3901C74.8461 13.3901 74.8046 13.399 74.7663 13.4162C74.728 13.4334 74.6938 13.4585 74.666 13.4899C74.6381 13.5213 74.6172 13.5583 74.6047 13.5983C74.5922 13.6384 74.5883 13.6807 74.5933 13.7223V16.2117C74.5883 16.2534 74.5922 16.2956 74.6047 16.3357C74.6172 16.3758 74.6381 16.4127 74.666 16.4441C74.6938 16.4755 74.728 16.5007 74.7663 16.5179C74.8046 16.5351 74.8461 16.544 74.8881 16.544C74.93 16.544 74.9715 16.5351 75.0098 16.5179C75.0481 16.5007 75.0823 16.4755 75.1101 16.4441C75.138 16.4127 75.1589 16.3758 75.1714 16.3357C75.1839 16.2956 75.1878 16.2534 75.1828 16.2117V13.7223ZM77.528 13.9556C76.947 13.9556 76.701 14.5748 76.701 15.3763V16.2244C76.706 16.2661 76.7021 16.3084 76.6896 16.3484C76.6771 16.3885 76.6562 16.4254 76.6284 16.4568C76.6005 16.4882 76.5663 16.5134 76.528 16.5306C76.4897 16.5478 76.4482 16.5567 76.4063 16.5567C76.3643 16.5567 76.3228 16.5478 76.2845 16.5306C76.2463 16.5134 76.2121 16.4882 76.1842 16.4568C76.1563 16.4254 76.1355 16.3885 76.1229 16.3484C76.1104 16.3084 76.1065 16.2661 76.1115 16.2244V13.7223C76.1065 13.6807 76.1104 13.6384 76.1229 13.5983C76.1355 13.5583 76.1563 13.5213 76.1842 13.4899C76.2121 13.4585 76.2463 13.4334 76.2845 13.4162C76.3228 13.399 76.3643 13.3901 76.4063 13.3901C76.4482 13.3901 76.4897 13.399 76.528 13.4162C76.5663 13.4334 76.6005 13.4585 76.6284 13.4899C76.6562 13.5213 76.6771 13.5583 76.6896 13.5983C76.7021 13.6384 76.706 13.6807 76.701 13.7223V14.1464C76.8537 13.6163 77.1251 13.4043 77.5492 13.4043C77.7697 13.4043 78.1302 13.4467 78.0793 13.7648C78.0454 13.9514 77.88 13.9895 77.6552 13.9726C77.6101 13.9686 77.5646 13.9686 77.5195 13.9726M81.1327 15.1897H78.9105C78.9391 15.4246 79.0556 15.6401 79.2366 15.7927C79.4175 15.9453 79.6495 16.0238 79.8859 16.0124C80.0299 16.0243 80.1747 16.0017 80.3082 15.9464C80.4417 15.891 80.5601 15.8046 80.6535 15.6943C80.6983 15.6353 80.7633 15.5949 80.8361 15.5808C80.9088 15.5667 80.9843 15.5799 81.0479 15.618C81.076 15.6385 81.0996 15.6644 81.1175 15.6943C81.1353 15.7241 81.1469 15.7572 81.1517 15.7917C81.1564 15.8261 81.1542 15.8611 81.1451 15.8947C81.136 15.9282 81.1202 15.9596 81.0988 15.9869C80.889 16.2328 80.6087 16.4084 80.2959 16.4898C79.9831 16.5712 79.6529 16.5545 79.3499 16.4421C79.0468 16.3297 78.7856 16.1269 78.6016 15.8612C78.4176 15.5955 78.3197 15.2796 78.321 14.9564C78.3115 14.7504 78.3448 14.5446 78.4188 14.3521C78.4928 14.1596 78.6059 13.9845 78.7509 13.8379C78.8959 13.6913 79.0698 13.5763 79.2615 13.5002C79.4532 13.4241 79.6586 13.3886 79.8647 13.3958C80.0687 13.3894 80.2717 13.4258 80.4608 13.5028C80.6498 13.5797 80.8206 13.6955 80.9621 13.8426C81.1035 13.9896 81.2126 14.1648 81.2822 14.3566C81.3517 14.5485 81.3803 14.7528 81.3659 14.9564C81.3659 15.0183 81.3414 15.0776 81.2976 15.1214C81.2539 15.1651 81.1945 15.1897 81.1327 15.1897ZM80.7849 14.7317C80.7644 14.5048 80.6574 14.2946 80.4861 14.1446C80.3147 13.9946 80.0922 13.9163 79.8647 13.9259C79.633 13.9136 79.4053 13.9901 79.228 14.1398C79.0507 14.2895 78.9371 14.5012 78.9105 14.7317H80.7849ZM84.466 12.0811C84.461 12.0395 84.4648 11.9972 84.4774 11.9571C84.4899 11.9171 84.5108 11.8801 84.5386 11.8487C84.5665 11.8173 84.6007 11.7922 84.639 11.775C84.6772 11.7578 84.7187 11.7489 84.7607 11.7489C84.8027 11.7489 84.8442 11.7578 84.8825 11.775C84.9207 11.7922 84.9549 11.8173 84.9828 11.8487C85.0106 11.8801 85.0315 11.9171 85.044 11.9571C85.0566 11.9972 85.0605 12.0395 85.0554 12.0811V16.2117C85.0605 16.2534 85.0566 16.2956 85.044 16.3357C85.0315 16.3758 85.0106 16.4127 84.9828 16.4441C84.9549 16.4755 84.9207 16.5007 84.8825 16.5179C84.8442 16.5351 84.8027 16.544 84.7607 16.544C84.7187 16.544 84.6772 16.5351 84.639 16.5179C84.6007 16.5007 84.5665 16.4755 84.5386 16.4441C84.5108 16.4127 84.4899 16.3758 84.4774 16.3357C84.4648 16.2956 84.461 16.2534 84.466 16.2117V16.0124C84.3491 16.1813 84.1914 16.3177 84.0074 16.4089C83.8235 16.5002 83.6194 16.5432 83.4142 16.534C83.2085 16.5365 83.0045 16.497 82.8145 16.418C82.6246 16.339 82.4527 16.2221 82.3095 16.0745C82.1662 15.9269 82.0545 15.7516 81.9812 15.5594C81.908 15.3671 81.8746 15.162 81.8833 14.9564C81.8728 14.7515 81.9046 14.5467 81.9767 14.3546C82.0489 14.1626 82.1599 13.9875 82.3028 13.8403C82.4456 13.693 82.6173 13.5768 82.8071 13.4989C82.9968 13.4209 83.2007 13.383 83.4058 13.3873C83.6121 13.3746 83.8183 13.4155 84.0041 13.5062C84.1899 13.5969 84.3491 13.7342 84.466 13.9047V12.0811ZM83.4567 13.9895C83.3265 13.9859 83.197 14.0091 83.0762 14.0577C82.9554 14.1062 82.8458 14.1791 82.7544 14.2718C82.6629 14.3644 82.5915 14.4749 82.5445 14.5963C82.4975 14.7177 82.476 14.8475 82.4813 14.9776C82.4805 15.1748 82.5384 15.3677 82.6477 15.5318C82.757 15.6959 82.9127 15.8238 83.0949 15.899C83.2772 15.9742 83.4777 15.9935 83.6709 15.9543C83.8642 15.9151 84.0413 15.8192 84.1798 15.6789C84.3184 15.5385 84.4119 15.3602 84.4486 15.1664C84.4853 14.9727 84.4635 14.7724 84.3859 14.5912C84.3083 14.4099 84.1785 14.2559 84.013 14.1487C83.8475 14.0416 83.6538 13.9862 83.4567 13.9895ZM63.2279 23.0055C63.233 23.0478 63.229 23.0906 63.2163 23.1312C63.2035 23.1718 63.1823 23.2093 63.1541 23.2411C63.1258 23.2729 63.0912 23.2984 63.0524 23.3158C63.0136 23.3333 62.9715 23.3423 62.9289 23.3423C62.8864 23.3423 62.8443 23.3333 62.8055 23.3158C62.7667 23.2984 62.732 23.2729 62.7038 23.2411C62.6755 23.2093 62.6543 23.1718 62.6416 23.1312C62.6289 23.0906 62.6249 23.0478 62.6299 23.0055V19.0785C62.6294 19.0451 62.6354 19.0119 62.6477 18.9808C62.66 18.9497 62.6782 18.9214 62.7015 18.8973C62.7247 18.8733 62.7524 18.8541 62.7831 18.8408C62.8138 18.8275 62.8467 18.8204 62.8802 18.8198H64.4069C64.5898 18.8109 64.7724 18.8417 64.9424 18.9099C65.1123 18.9781 65.2656 19.0822 65.3916 19.215C65.5176 19.3479 65.6135 19.5064 65.6726 19.6797C65.7317 19.8531 65.7528 20.0371 65.7342 20.2193C65.7534 20.4018 65.7329 20.5863 65.6741 20.7602C65.6152 20.934 65.5195 21.0931 65.3934 21.2264C65.2673 21.3598 65.1138 21.4642 64.9435 21.5327C64.7732 21.6012 64.5902 21.632 64.4069 21.623H63.2279V23.0055ZM63.2279 19.3881V21.0463H64.3602C64.5506 21.0089 64.7223 20.9074 64.8469 20.7587C64.9715 20.61 65.0413 20.4231 65.0448 20.2292C65.0483 20.0352 64.9852 19.8459 64.866 19.6929C64.7468 19.5398 64.5788 19.4323 64.3899 19.3881H63.2279ZM68.9021 21.992H66.6799C66.7086 22.2266 66.8253 22.4415 67.0063 22.5935C67.1874 22.7454 67.4193 22.8229 67.6553 22.8104C67.799 22.8225 67.9434 22.8004 68.0769 22.7458C68.2103 22.6913 68.3289 22.6059 68.4229 22.4966C68.4677 22.4376 68.5324 22.397 68.605 22.3821C68.6775 22.3673 68.753 22.3794 68.8173 22.416C68.8454 22.4365 68.8691 22.4625 68.8869 22.4923C68.9048 22.5221 68.9164 22.5553 68.9212 22.5897C68.9259 22.6241 68.9237 22.6592 68.9146 22.6927C68.9055 22.7263 68.8897 22.7577 68.8682 22.785C68.6982 22.9853 68.4808 23.1398 68.2357 23.2345C67.9906 23.3291 67.7258 23.3609 67.4653 23.327C67.2048 23.293 66.9569 23.1943 66.7444 23.04C66.5318 22.8856 66.3612 22.6805 66.2483 22.4433C66.1353 22.2062 66.0835 21.9445 66.0977 21.6821C66.1118 21.4198 66.1914 21.1652 66.3292 20.9416C66.467 20.7179 66.6586 20.5323 66.8865 20.4017C67.1145 20.2711 67.3715 20.1996 67.6341 20.1938C67.8378 20.1886 68.0403 20.226 68.2286 20.3038C68.417 20.3815 68.5869 20.4978 68.7275 20.6452C68.8682 20.7927 68.9764 20.9679 69.0451 21.1597C69.1139 21.3515 69.1418 21.5555 69.1269 21.7587C69.1269 21.7893 69.1209 21.8197 69.1091 21.848C69.0974 21.8763 69.0802 21.902 69.0586 21.9236C69.0369 21.9453 69.0112 21.9625 68.9829 21.9742C68.9546 21.9859 68.9243 21.992 68.8936 21.992M68.5459 21.534C68.5254 21.3068 68.4186 21.0961 68.2473 20.9454C68.0761 20.7947 67.8536 20.7154 67.6257 20.724C67.3935 20.7127 67.1658 20.7902 66.9886 20.9406C66.8115 21.091 66.6981 21.3031 66.6715 21.534H68.5459ZM69.7037 20.7748C69.6373 20.7748 69.5737 20.7485 69.5267 20.7016C69.4798 20.6546 69.4534 20.591 69.4534 20.5246C69.4534 20.4583 69.4798 20.3946 69.5267 20.3477C69.5737 20.3008 69.6373 20.2744 69.7037 20.2744H70.026V19.3881C70.0254 19.3493 70.0325 19.3108 70.047 19.2748C70.0615 19.2388 70.0829 19.2061 70.1101 19.1784C70.1374 19.1508 70.1698 19.1289 70.2056 19.1139C70.2414 19.0989 70.2798 19.0912 70.3186 19.0912C70.3973 19.0912 70.4728 19.1225 70.5285 19.1782C70.5842 19.2339 70.6154 19.3094 70.6154 19.3881V20.2575H71.0395C71.1059 20.2575 71.1695 20.2838 71.2164 20.3307C71.2634 20.3777 71.2897 20.4413 71.2897 20.5077C71.2897 20.574 71.2634 20.6377 71.2164 20.6846C71.1695 20.7315 71.1059 20.7579 71.0395 20.7579H70.6154V23.014C70.6154 23.053 70.6077 23.0916 70.5928 23.1276C70.5779 23.1636 70.556 23.1963 70.5285 23.2239C70.5009 23.2515 70.4682 23.2733 70.4322 23.2883C70.3962 23.3032 70.3576 23.3109 70.3186 23.3109C70.2798 23.3109 70.2414 23.3032 70.2056 23.2882C70.1698 23.2732 70.1374 23.2513 70.1101 23.2237C70.0829 23.196 70.0615 23.1633 70.047 23.1273C70.0325 23.0913 70.0254 23.0528 70.026 23.014V20.7748H69.7037ZM63.2237 26.4915V29.5746C63.2237 29.6141 63.2159 29.6533 63.2007 29.6898C63.1856 29.7263 63.1634 29.7595 63.1355 29.7875C63.1075 29.8154 63.0743 29.8376 63.0378 29.8527C63.0013 29.8679 62.9621 29.8757 62.9226 29.8757C62.883 29.8757 62.8439 29.8679 62.8073 29.8527C62.7708 29.8376 62.7376 29.8154 62.7097 29.7875C62.6817 29.7595 62.6595 29.7263 62.6444 29.6898C62.6293 29.6533 62.6215 29.6141 62.6215 29.5746V25.656C62.6226 25.5776 62.6542 25.5028 62.7096 25.4473C62.7651 25.3919 62.8399 25.3603 62.9183 25.3592H63.0031C63.0655 25.355 63.1277 25.3692 63.182 25.4001C63.2363 25.431 63.2803 25.4773 63.3085 25.533L65.2253 28.7221V25.6645C65.2253 25.625 65.2331 25.5858 65.2483 25.5493C65.2634 25.5128 65.2856 25.4796 65.3135 25.4516C65.3415 25.4236 65.3747 25.4015 65.4112 25.3863C65.4477 25.3712 65.4869 25.3634 65.5264 25.3634C65.566 25.3634 65.6051 25.3712 65.6417 25.3863C65.6782 25.4015 65.7114 25.4236 65.7393 25.4516C65.7673 25.4796 65.7895 25.5128 65.8046 25.5493C65.8197 25.5858 65.8275 25.625 65.8275 25.6645V29.5915C65.8264 29.6665 65.7961 29.7382 65.7431 29.7912C65.69 29.8443 65.6184 29.8746 65.5434 29.8757H65.4586C65.399 29.8797 65.3395 29.8662 65.2875 29.8368C65.2355 29.8075 65.1932 29.7634 65.166 29.7103L63.2237 26.4915ZM68.9276 29.3922C68.8303 29.5539 68.6919 29.6869 68.5266 29.7778C68.3612 29.8687 68.1747 29.9141 67.9861 29.9096C67.2355 29.9096 66.8199 29.4176 66.8199 28.5695V27.0937C66.8149 27.052 66.8188 27.0097 66.8313 26.9697C66.8438 26.9296 66.8647 26.8927 66.8925 26.8613C66.9204 26.8299 66.9546 26.8047 66.9929 26.7875C67.0312 26.7703 67.0727 26.7614 67.1146 26.7614C67.1566 26.7614 67.1981 26.7703 67.2364 26.7875C67.2747 26.8047 67.3089 26.8299 67.3367 26.8613C67.3646 26.8927 67.3854 26.9296 67.398 26.9697C67.4105 27.0097 67.4144 27.052 67.4094 27.0937V28.5313C67.4094 29.036 67.6596 29.3328 68.0752 29.3328C68.191 29.3401 68.3071 29.3222 68.4153 29.2802C68.5236 29.2383 68.6214 29.1733 68.702 29.0898C68.7827 29.0063 68.8443 28.9063 68.8825 28.7967C68.9207 28.6871 68.9346 28.5705 68.9233 28.455V27.0937C68.9183 27.052 68.9222 27.0097 68.9347 26.9697C68.9473 26.9296 68.9681 26.8927 68.996 26.8613C69.0239 26.8299 69.058 26.8047 69.0963 26.7875C69.1346 26.7703 69.1761 26.7614 69.2181 26.7614C69.26 26.7614 69.3015 26.7703 69.3398 26.7875C69.3781 26.8047 69.4123 26.8299 69.4402 26.8613C69.468 26.8927 69.4889 26.9296 69.5014 26.9697C69.5139 27.0097 69.5178 27.052 69.5128 27.0937V29.5788C69.5178 29.6205 69.5139 29.6627 69.5014 29.7028C69.4889 29.7429 69.468 29.7798 69.4402 29.8112C69.4123 29.8426 69.3781 29.8677 69.3398 29.885C69.3015 29.9022 69.26 29.9111 69.2181 29.9111C69.1761 29.9111 69.1346 29.9022 69.0963 29.885C69.058 29.8677 69.0239 29.8426 68.996 29.8112C68.9681 29.7798 68.9473 29.7429 68.9347 29.7028C68.9222 29.6627 68.9183 29.6205 68.9233 29.5788L68.9276 29.3922ZM70.3483 27.3227C70.313 27.3273 70.2771 27.3243 70.243 27.314C70.2089 27.3036 70.1775 27.2861 70.1507 27.2627C70.124 27.2392 70.1025 27.2102 70.0878 27.1778C70.0731 27.1454 70.0655 27.1102 70.0655 27.0746C70.0655 27.039 70.0731 27.0038 70.0878 26.9714C70.1025 26.9389 70.124 26.91 70.1507 26.8865C70.1775 26.863 70.2089 26.8455 70.243 26.8352C70.2771 26.8248 70.313 26.8219 70.3483 26.8265H70.6706V25.9529C70.6656 25.9112 70.6694 25.869 70.682 25.8289C70.6945 25.7888 70.7154 25.7519 70.7432 25.7205C70.7711 25.6891 70.8053 25.6639 70.8435 25.6467C70.8818 25.6295 70.9233 25.6206 70.9653 25.6206C71.0073 25.6206 71.0488 25.6295 71.087 25.6467C71.1253 25.6639 71.1595 25.6891 71.1874 25.7205C71.2152 25.7519 71.2361 25.7888 71.2486 25.8289C71.2612 25.869 71.265 25.9112 71.26 25.9529V26.8265H71.6841C71.7194 26.8219 71.7553 26.8248 71.7894 26.8352C71.8234 26.8455 71.8549 26.863 71.8817 26.8865C71.9084 26.91 71.9299 26.9389 71.9445 26.9714C71.9592 27.0038 71.9668 27.039 71.9668 27.0746C71.9668 27.1102 71.9592 27.1454 71.9445 27.1778C71.9299 27.2102 71.9084 27.2392 71.8817 27.2627C71.8549 27.2861 71.8234 27.3036 71.7894 27.314C71.7553 27.3243 71.7194 27.3273 71.6841 27.3227H71.26V29.5788C71.265 29.6205 71.2612 29.6627 71.2486 29.7028C71.2361 29.7429 71.2152 29.7798 71.1874 29.8112C71.1595 29.8426 71.1253 29.8677 71.087 29.885C71.0488 29.9022 71.0073 29.9111 70.9653 29.9111C70.9233 29.9111 70.8818 29.9022 70.8435 29.885C70.8053 29.8677 70.7711 29.8426 70.7432 29.8112C70.7154 29.7798 70.6945 29.7429 70.682 29.7028C70.6694 29.6627 70.6656 29.6205 70.6706 29.5788V27.3227H70.3483ZM73.9105 27.3227C73.3296 27.3227 73.0836 27.9461 73.0836 28.7476V29.5958C73.0886 29.6374 73.0847 29.6797 73.0722 29.7198C73.0597 29.7598 73.0388 29.7968 73.0109 29.8282C72.9831 29.8596 72.9489 29.8847 72.9106 29.9019C72.8723 29.9191 72.8308 29.928 72.7889 29.928C72.7469 29.928 72.7054 29.9191 72.6671 29.9019C72.6288 29.8847 72.5946 29.8596 72.5668 29.8282C72.5389 29.7968 72.518 29.7598 72.5055 29.7198C72.493 29.6797 72.4891 29.6374 72.4941 29.5958V27.0937C72.4891 27.052 72.493 27.0097 72.5055 26.9697C72.518 26.9296 72.5389 26.8927 72.5668 26.8613C72.5946 26.8299 72.6288 26.8047 72.6671 26.7875C72.7054 26.7703 72.7469 26.7614 72.7889 26.7614C72.8308 26.7614 72.8723 26.7703 72.9106 26.7875C72.9489 26.8047 72.9831 26.8299 73.0109 26.8613C73.0388 26.8927 73.0597 26.9296 73.0722 26.9697C73.0847 27.0097 73.0886 27.052 73.0836 27.0937V27.5178C73.2363 26.9877 73.5077 26.7756 73.9318 26.7756C74.1523 26.7756 74.5127 26.818 74.4619 27.1361C74.4279 27.3227 74.2625 27.3608 74.0378 27.3439C73.9926 27.3399 73.9472 27.3399 73.9021 27.3439M75.2719 25.3422C75.3452 25.3504 75.4145 25.3797 75.4715 25.4265C75.5286 25.4732 75.5708 25.5355 75.5932 25.6058C75.6155 25.6761 75.617 25.7514 75.5975 25.8225C75.578 25.8936 75.5383 25.9576 75.4832 26.0066C75.4281 26.0557 75.36 26.0877 75.2871 26.0988C75.2141 26.11 75.1396 26.0997 75.0723 26.0694C75.0051 26.039 74.9481 25.9898 74.9083 25.9278C74.8684 25.8657 74.8474 25.7934 74.8478 25.7196C74.8493 25.6665 74.8617 25.6142 74.8841 25.566C74.9066 25.5179 74.9387 25.4748 74.9784 25.4394C75.0181 25.4041 75.0646 25.3772 75.1151 25.3605C75.1655 25.3438 75.2189 25.3376 75.2719 25.3422ZM75.5687 27.0937C75.5737 27.052 75.5698 27.0097 75.5573 26.9697C75.5448 26.9296 75.5239 26.8927 75.4961 26.8613C75.4682 26.8299 75.434 26.8047 75.3957 26.7875C75.3574 26.7703 75.3159 26.7614 75.274 26.7614C75.232 26.7614 75.1905 26.7703 75.1522 26.7875C75.1139 26.8047 75.0798 26.8299 75.0519 26.8613C75.024 26.8927 75.0032 26.9296 74.9906 26.9697C74.9781 27.0097 74.9742 27.052 74.9792 27.0937V29.5788C74.9742 29.6205 74.9781 29.6627 74.9906 29.7028C75.0032 29.7429 75.024 29.7798 75.0519 29.8112C75.0798 29.8426 75.1139 29.8677 75.1522 29.885C75.1905 29.9022 75.232 29.9111 75.274 29.9111C75.3159 29.9111 75.3574 29.9022 75.3957 29.885C75.434 29.8677 75.4682 29.8426 75.4961 29.8112C75.5239 29.7798 75.5448 29.7429 75.5573 29.7028C75.5698 29.6627 75.5737 29.6205 75.5687 29.5788V27.0937ZM76.4042 27.3227C76.3689 27.3273 76.333 27.3243 76.2989 27.314C76.2648 27.3036 76.2334 27.2861 76.2066 27.2627C76.1799 27.2392 76.1584 27.2102 76.1437 27.1778C76.129 27.1454 76.1214 27.1102 76.1214 27.0746C76.1214 27.039 76.129 27.0038 76.1437 26.9714C76.1584 26.9389 76.1799 26.91 76.2066 26.8865C76.2334 26.863 76.2648 26.8455 76.2989 26.8352C76.333 26.8248 76.3689 26.8219 76.4042 26.8265H76.7265V25.9529C76.7259 25.9145 76.7329 25.8763 76.7471 25.8406C76.7613 25.8049 76.7824 25.7723 76.8092 25.7447C76.8359 25.7172 76.8679 25.6951 76.9032 25.6799C76.9385 25.6647 76.9764 25.6566 77.0148 25.656C77.0542 25.6555 77.0932 25.6627 77.1297 25.6774C77.1662 25.6921 77.1995 25.7138 77.2275 25.7415C77.2555 25.7691 77.2778 25.802 77.2929 25.8383C77.3081 25.8746 77.3159 25.9135 77.3159 25.9529V26.8265H77.74C77.7753 26.8219 77.8112 26.8248 77.8453 26.8352C77.8793 26.8455 77.9108 26.863 77.9376 26.8865C77.9643 26.91 77.9858 26.9389 78.0004 26.9714C78.0151 27.0038 78.0227 27.039 78.0227 27.0746C78.0227 27.1102 78.0151 27.1454 78.0004 27.1778C77.9858 27.2102 77.9643 27.2392 77.9376 27.2627C77.9108 27.2861 77.8793 27.3036 77.8453 27.314C77.8112 27.3243 77.7753 27.3273 77.74 27.3227H77.3159V29.5788C77.3159 29.6181 77.3081 29.6571 77.2929 29.6934C77.2778 29.7297 77.2555 29.7626 77.2275 29.7902C77.1995 29.8178 77.1662 29.8396 77.1297 29.8543C77.0932 29.869 77.0542 29.8762 77.0148 29.8757C76.9764 29.8751 76.9385 29.867 76.9032 29.8518C76.8679 29.8365 76.8359 29.8145 76.8092 29.787C76.7824 29.7594 76.7613 29.7268 76.7471 29.6911C76.7329 29.6554 76.7259 29.6172 76.7265 29.5788V27.3227H76.4042ZM78.8384 25.3422C78.9117 25.3504 78.9811 25.3797 79.0381 25.4265C79.0951 25.4732 79.1373 25.5355 79.1597 25.6058C79.1821 25.6761 79.1836 25.7514 79.1641 25.8225C79.1445 25.8936 79.1048 25.9576 79.0497 26.0066C78.9946 26.0557 78.9265 26.0877 78.8536 26.0988C78.7807 26.11 78.7061 26.0997 78.6389 26.0694C78.5717 26.039 78.5147 25.9898 78.4748 25.9278C78.435 25.8657 78.4139 25.7934 78.4143 25.7196C78.4158 25.6665 78.4282 25.6142 78.4507 25.566C78.4731 25.5179 78.5052 25.4748 78.5449 25.4394C78.5846 25.4041 78.6312 25.3772 78.6816 25.3605C78.7321 25.3438 78.7854 25.3376 78.8384 25.3422ZM79.1352 27.0937C79.1403 27.052 79.1364 27.0097 79.1238 26.9697C79.1113 26.9296 79.0904 26.8927 79.0626 26.8613C79.0347 26.8299 79.0005 26.8047 78.9623 26.7875C78.924 26.7703 78.8825 26.7614 78.8405 26.7614C78.7985 26.7614 78.757 26.7703 78.7188 26.7875C78.6805 26.8047 78.6463 26.8299 78.6184 26.8613C78.5906 26.8927 78.5697 26.9296 78.5572 26.9697C78.5447 27.0097 78.5408 27.052 78.5458 27.0937V29.5788C78.5408 29.6205 78.5447 29.6627 78.5572 29.7028C78.5697 29.7429 78.5906 29.7798 78.6184 29.8112C78.6463 29.8426 78.6805 29.8677 78.7188 29.885C78.757 29.9022 78.7985 29.9111 78.8405 29.9111C78.8825 29.9111 78.924 29.9022 78.9623 29.885C79.0005 29.8677 79.0347 29.8426 79.0626 29.8112C79.0904 29.7798 79.1113 29.7429 79.1238 29.7028C79.1364 29.6627 79.1403 29.6205 79.1352 29.5788V27.0937ZM79.8901 28.3278C79.8901 27.9082 80.0568 27.5059 80.3534 27.2092C80.6501 26.9126 81.0524 26.7459 81.4719 26.7459C81.8915 26.7459 82.2938 26.9126 82.5905 27.2092C82.8871 27.5059 83.0538 27.9082 83.0538 28.3278C83.0538 28.7473 82.8871 29.1496 82.5905 29.4463C82.2938 29.7429 81.8915 29.9096 81.4719 29.9096C81.0524 29.9096 80.6501 29.7429 80.3534 29.4463C80.0568 29.1496 79.8901 28.7473 79.8901 28.3278ZM82.4643 28.3278C82.4478 28.0752 82.3358 27.8384 82.1512 27.6654C81.9665 27.4924 81.7229 27.3961 81.4698 27.3961C81.2168 27.3961 80.9732 27.4924 80.7885 27.6654C80.6038 27.8384 80.4919 28.0752 80.4754 28.3278C80.4665 28.4638 80.4856 28.6002 80.5315 28.7286C80.5775 28.857 80.6493 28.9746 80.7425 29.0741C80.8357 29.1736 80.9484 29.2529 81.0735 29.3071C81.1986 29.3613 81.3335 29.3893 81.4698 29.3893C81.6062 29.3893 81.7411 29.3613 81.8662 29.3071C81.9913 29.2529 82.1039 29.1736 82.1971 29.0741C82.2904 28.9746 82.3622 28.857 82.4081 28.7286C82.4541 28.6002 82.4732 28.4638 82.4643 28.3278ZM84.3939 27.2803C84.4912 27.1177 84.6301 26.984 84.7964 26.893C84.9626 26.8021 85.1502 26.7571 85.3396 26.7629C86.0902 26.7629 86.5016 27.2548 86.5016 28.0987V29.5788C86.5066 29.6205 86.5027 29.6627 86.4902 29.7028C86.4776 29.7429 86.4568 29.7798 86.4289 29.8112C86.4011 29.8426 86.3669 29.8677 86.3286 29.885C86.2903 29.9022 86.2488 29.9111 86.2068 29.9111C86.1649 29.9111 86.1234 29.9022 86.0851 29.885C86.0468 29.8677 86.0126 29.8426 85.9848 29.8112C85.9569 29.7798 85.936 29.7429 85.9235 29.7028C85.911 29.6627 85.9071 29.6205 85.9121 29.5788V28.1369C85.9121 27.6365 85.6619 27.3354 85.2463 27.3354C85.1302 27.3287 85.0141 27.3473 84.9059 27.3897C84.7976 27.4322 84.6999 27.4976 84.6193 27.5814C84.5387 27.6652 84.4772 27.7654 84.4391 27.8752C84.4009 27.985 84.3869 28.1018 84.3981 28.2175V29.5788C84.3981 29.6564 84.3673 29.7308 84.3124 29.7857C84.2575 29.8406 84.1831 29.8714 84.1055 29.8714C84.0279 29.8714 83.9535 29.8406 83.8986 29.7857C83.8437 29.7308 83.8129 29.6564 83.8129 29.5788V27.0937C83.8129 27.0161 83.8437 26.9416 83.8986 26.8868C83.9535 26.8319 84.0279 26.8011 84.1055 26.8011C84.1831 26.8011 84.2575 26.8319 84.3124 26.8868C84.3673 26.9416 84.3981 27.0161 84.3981 27.0937L84.3939 27.2803ZM7.43559 13.8496C7.43559 13.3997 7.25687 12.9682 6.93875 12.6501C6.62062 12.332 6.18915 12.1532 5.73926 12.1532C5.28936 12.1532 4.8579 12.332 4.53977 12.6501C4.22165 12.9682 4.04293 13.3997 4.04293 13.8496V28.1624C4.04293 28.6123 4.22165 29.0437 4.53977 29.3618C4.8579 29.68 5.28936 29.8587 5.73926 29.8587C6.18915 29.8587 6.62062 29.68 6.93875 29.3618C7.25687 29.0437 7.43559 28.6123 7.43559 28.1624V13.8496ZM14.7298 36.5253C14.7298 36.9752 14.5511 37.4066 14.233 37.7248C13.9148 38.0429 13.4834 38.2216 13.0335 38.2216C12.5836 38.2216 12.1521 38.0429 11.834 37.7248C11.5159 37.4066 11.3372 36.9752 11.3372 36.5253V13.8496C11.3372 13.3997 11.5159 12.9682 11.834 12.6501C12.1521 12.332 12.5836 12.1532 13.0335 12.1532C13.4834 12.1532 13.9148 12.332 14.233 12.6501C14.5511 12.9682 14.7298 13.3997 14.7298 13.8496V15.037C15.8833 13.0693 18.1691 11.9539 20.5864 11.9539C25.3446 11.9539 28.4446 15.5586 28.4446 21.0632C28.4446 26.5678 25.3446 30.058 20.5864 30.058C18.1691 30.058 15.8833 29.0911 14.7298 27.0894V36.5253ZM20.2429 26.7714C23.3726 26.7502 25.0223 24.5577 25.0223 21.0971C25.0223 17.6366 23.3726 15.2618 20.2514 15.2618C17.2022 15.2618 14.768 17.4203 14.768 21.0971C14.768 24.7739 17.4651 26.7502 20.2514 26.7502M35.4335 14.9267C36.4725 12.8445 38.9619 11.9582 40.8575 11.9582C45.1705 11.9582 47.5496 14.7826 47.5496 19.651V28.1624C47.5496 28.6123 47.3708 29.0437 47.0527 29.3618C46.7346 29.68 46.3031 29.8587 45.8532 29.8587C45.4033 29.8587 44.9719 29.68 44.6538 29.3618C44.3356 29.0437 44.1569 28.6123 44.1569 28.1624V19.8715C44.1569 16.9708 42.7108 15.2618 40.3402 15.2618C37.8847 15.2618 35.4335 16.6358 35.4335 20.3168V28.1624C35.4335 28.6123 35.2548 29.0437 34.9367 29.3618C34.6186 29.68 34.1871 29.8587 33.7372 29.8587C33.2873 29.8587 32.8558 29.68 32.5377 29.3618C32.2196 29.0437 32.0409 28.6123 32.0409 28.1624V13.8496C32.0409 13.3997 32.2196 12.9682 32.5377 12.6501C32.8558 12.332 33.2873 12.1532 33.7372 12.1532C34.1871 12.1532 34.6186 12.332 34.9367 12.6501C35.2548 12.9682 35.4335 13.3997 35.4335 13.8496V14.9267ZM5.73502 3.78185C6.03579 3.76703 6.33647 3.8128 6.61921 3.91644C6.90195 4.02009 7.16098 4.17949 7.38092 4.38519C7.60085 4.59088 7.77721 4.83868 7.89953 5.11386C8.02184 5.38904 8.0876 5.68599 8.09292 5.98708C8.08816 6.28853 8.02281 6.58594 7.90075 6.86161C7.77869 7.13729 7.60242 7.38559 7.38242 7.59173C7.16242 7.79788 6.9032 7.95766 6.62019 8.06157C6.33717 8.16547 6.03614 8.21138 5.73502 8.19655C5.43613 8.20559 5.1384 8.15557 4.85888 8.04935C4.57936 7.94314 4.32354 7.78281 4.10608 7.57756C3.88862 7.37232 3.71379 7.12618 3.59162 6.85326C3.46944 6.58034 3.40231 6.28599 3.39408 5.98708C3.40227 5.68688 3.46997 5.39129 3.59326 5.11745C3.71655 4.84362 3.89298 4.59698 4.11231 4.39185C4.33165 4.18671 4.58952 4.02717 4.87099 3.92245C5.15245 3.81774 5.45191 3.76995 5.75198 3.78185M0.955607 5.15588C0.782661 5.1037 0.622278 5.01654 0.484403 4.89983C0.346528 4.78311 0.2341 4.63931 0.154091 4.47734C0.0688786 4.31784 0.0177175 4.14237 0.00384746 3.96206C-0.0100225 3.78175 0.0137008 3.60053 0.0735151 3.42986C0.125414 3.25625 0.212419 3.09515 0.329138 2.95655C0.445857 2.81794 0.589801 2.70479 0.752047 2.6241C0.912326 2.53906 1.08829 2.48767 1.26915 2.47308C1.45001 2.4585 1.63194 2.48103 1.80377 2.53929C1.97672 2.59147 2.1371 2.67862 2.27498 2.79534C2.41285 2.91206 2.52528 3.05586 2.60529 3.21782C2.68858 3.37799 2.73866 3.55334 2.7525 3.73334C2.76635 3.91334 2.74368 4.09428 2.68586 4.2653C2.6339 4.44048 2.54699 4.60332 2.43037 4.74399C2.31375 4.88466 2.16985 5.00025 2.00733 5.08378C1.84646 5.16744 1.6702 5.21737 1.48935 5.23049C1.3085 5.24362 1.12687 5.21967 0.955607 5.16012M9.67475 5.15588C9.50146 5.1033 9.34068 5.01603 9.20216 4.89939C9.06365 4.78274 8.95029 4.63915 8.86899 4.47734C8.78544 4.3172 8.73557 4.14165 8.72244 3.9615C8.70931 3.78135 8.73321 3.60042 8.79265 3.42986C8.90513 3.084 9.15039 2.79699 9.47448 2.63197C9.79856 2.46694 10.1749 2.43742 10.5208 2.54989C10.8666 2.66236 11.1537 2.90762 11.3187 3.23171C11.4837 3.5558 11.5132 3.93217 11.4008 4.27803C11.3482 4.45131 11.2609 4.6121 11.1443 4.75061C11.0276 4.88913 10.884 5.00248 10.7222 5.08378C10.5621 5.16733 10.3865 5.21721 10.2064 5.23033C10.0262 5.24346 9.84531 5.21957 9.67475 5.16012M3.50434 2.67499C3.3313 2.62049 3.17108 2.53152 3.03333 2.41345C2.89558 2.29538 2.78316 2.15065 2.70283 1.98798C2.62066 1.82724 2.57225 1.6514 2.56058 1.47125C2.54891 1.29111 2.57423 1.11049 2.63497 0.940495C2.69175 0.769939 2.78195 0.612409 2.9003 0.477109C3.01865 0.341808 3.16278 0.231451 3.32426 0.152485C3.48575 0.0735197 3.66135 0.027529 3.84081 0.0172003C4.02027 0.00687173 4.19999 0.0324123 4.36947 0.0923299C4.54073 0.143111 4.69979 0.228368 4.8369 0.342865C4.974 0.457362 5.08625 0.59868 5.16675 0.75814C5.24961 0.918579 5.29875 1.09428 5.31114 1.27442C5.32354 1.45457 5.29894 1.63535 5.23884 1.80562C5.18496 1.97845 5.09619 2.13837 4.97802 2.27551C4.85985 2.41264 4.71479 2.52407 4.55183 2.6029C4.39139 2.68576 4.21569 2.7349 4.03554 2.7473C3.8554 2.75969 3.67462 2.73509 3.50434 2.67499ZM7.10057 2.67499C6.92752 2.62049 6.7673 2.53152 6.62955 2.41345C6.4918 2.29538 6.37938 2.15065 6.29905 1.98798C6.21688 1.82724 6.16847 1.6514 6.1568 1.47125C6.14514 1.29111 6.17045 1.11049 6.2312 0.940495C6.28503 0.767121 6.37374 0.606585 6.49188 0.46875C6.61003 0.330915 6.75511 0.218693 6.91821 0.138979C7.2456 -0.0195034 7.62205 -0.0434416 7.96688 0.0722943C8.31171 0.18803 8.59748 0.434232 8.76297 0.75814C8.84583 0.918579 8.89497 1.09428 8.90737 1.27442C8.91976 1.45457 8.89516 1.63535 8.83506 1.80562C8.78118 1.97845 8.69241 2.13837 8.57424 2.27551C8.45607 2.41264 8.31101 2.52407 8.14805 2.6029C7.98761 2.68576 7.81191 2.7349 7.63176 2.7473C7.45162 2.75969 7.27084 2.73509 7.10057 2.67499Z"></path>
</g>
<defs>
<clipPath id="clip0_57422_9859">
<rect fill="white" height="39" width="87"></rect>
</clipPath>
</defs>
</svg>
