<svg xmlns="http://www.w3.org/2000/svg" fill="none" viewBox="0 0 103 34" height="34" width="103">
<path fill="#52525B" d="M24.2754 4.39406C26.914 4.39406 29.5526 4.39406 32.2712 4.39406C32.2712 12.8804 32.2712 21.3667 32.2712 30.1102C29.6563 30.1102 27.0415 30.1102 24.3474 30.1102C24.2754 30.0381 24.2754 30.0381 24.2665 29.8647C24.2665 29.7869 24.2665 29.709 24.2665 29.6288C24.2664 29.5393 24.2663 29.4498 24.2661 29.3576C24.2663 29.2571 24.2665 29.1565 24.2667 29.0559C24.2667 28.9501 24.2667 28.8442 24.2666 28.7384C24.2664 28.4462 24.2667 28.154 24.2671 27.8617C24.2674 27.5471 24.2673 27.2325 24.2672 26.9179C24.2672 26.3724 24.2674 25.8269 24.2678 25.2813C24.2684 24.4926 24.2686 23.7038 24.2687 22.9151C24.2688 21.6355 24.2693 20.3559 24.27 19.0764C24.2706 17.8331 24.2711 16.5897 24.2715 15.3464C24.2715 15.2698 24.2715 15.1933 24.2715 15.1144C24.2716 14.7302 24.2717 14.346 24.2718 13.9619C24.2725 10.7726 24.2739 7.58333 24.2754 4.39406Z"></path>
<path fill="#52525B" d="M2.72628 14.8301C2.81383 14.8302 2.81383 14.8302 2.90314 14.8303C2.96977 14.8302 3.0364 14.8301 3.10505 14.83C3.21601 14.8304 3.21601 14.8304 3.32922 14.8308C3.44704 14.8308 3.44704 14.8308 3.56725 14.8308C3.82284 14.8308 4.07842 14.8314 4.33402 14.8319C4.49128 14.8321 4.64855 14.8321 4.80581 14.8322C5.39055 14.8325 5.97529 14.8335 6.56003 14.8345C7.86596 14.836 9.17189 14.8374 10.5174 14.839C10.5174 19.8785 10.5174 24.918 10.5174 30.1102C8.5585 30.1124 8.5585 30.1124 6.56003 30.1147C6.14701 30.1153 5.73399 30.116 5.30846 30.1167C4.80581 30.117 4.80581 30.117 4.57083 30.117C4.406 30.1172 4.24116 30.1174 4.07633 30.1178C3.82729 30.1183 3.57826 30.1184 3.32922 30.1183C3.21826 30.1187 3.21826 30.1187 3.10505 30.1191C3.03842 30.119 2.97179 30.1189 2.90314 30.1188C2.84478 30.1189 2.78641 30.119 2.72628 30.119C2.59366 30.1102 2.59366 30.1102 2.52163 30.0381C2.51442 29.8434 2.51195 29.6505 2.51248 29.4557C2.51237 29.3939 2.51226 29.3321 2.51214 29.2684C2.51185 29.0598 2.51208 28.8511 2.51231 28.6425C2.51221 28.4935 2.51208 28.3446 2.51193 28.1957C2.5116 27.79 2.51173 27.3843 2.51195 26.9786C2.51214 26.555 2.51197 26.1315 2.51186 25.7079C2.51172 24.9965 2.5119 24.2851 2.51224 23.5737C2.51263 22.7499 2.5125 21.9261 2.51211 21.1023C2.51178 20.3964 2.51173 19.6905 2.51192 18.9846C2.51204 18.5623 2.51205 18.1401 2.51181 17.7179C2.51161 17.3211 2.51175 16.9242 2.51217 16.5274C2.51226 16.3813 2.51223 16.2352 2.51207 16.0891C2.51188 15.8906 2.51212 15.692 2.51248 15.4935C2.51232 15.4349 2.51216 15.3763 2.512 15.3159C2.51367 14.8443 2.51367 14.8443 2.72628 14.8301Z"></path>
<path fill="#52525B" d="M12.3123 4.487C12.5581 4.57112 12.7169 4.76322 12.8961 4.94412C12.9393 4.98693 12.9826 5.02973 13.0271 5.07383C13.1723 5.21776 13.3166 5.36246 13.461 5.50716C13.5647 5.61036 13.6685 5.71352 13.7723 5.81664C14.0544 6.09711 14.3358 6.37828 14.617 6.65963C14.8515 6.89416 15.0863 7.12838 15.3211 7.3626C15.8748 7.91491 16.428 8.46782 16.9807 9.02107C17.5518 9.59263 18.1239 10.1631 18.6966 10.7331C19.1876 11.2219 19.678 11.7114 20.1677 12.2015C20.4605 12.4945 20.7536 12.7871 21.0474 13.0791C21.3234 13.3536 21.5986 13.6288 21.873 13.9048C21.9742 14.0062 22.0756 14.1072 22.1774 14.208C22.3157 14.345 22.453 14.4832 22.59 14.6217C22.6309 14.6617 22.6719 14.7017 22.714 14.743C22.9782 15.0133 22.9782 15.0133 22.9805 15.2111C22.8974 15.3597 22.8109 15.4655 22.6901 15.5857C22.644 15.6322 22.5978 15.6786 22.5502 15.7265C22.4993 15.7766 22.4484 15.8268 22.3959 15.8785C22.3425 15.9319 22.2891 15.9854 22.234 16.0404C22.0572 16.2171 21.8796 16.393 21.702 16.5689C21.5793 16.6912 21.4567 16.8135 21.3341 16.9359C21.0112 17.258 20.6876 17.5795 20.3639 17.9008C20.0337 18.2288 19.7042 18.5573 19.3746 18.8858C18.7277 19.5304 18.0801 20.1743 17.432 20.8178C17.0989 20.5392 16.7823 20.2504 16.4761 19.9426C16.4336 19.9001 16.3911 19.8577 16.3473 19.814C16.2064 19.6731 16.0657 19.532 15.925 19.3909C15.8234 19.2894 15.7219 19.1878 15.6203 19.0863C15.3456 18.8116 15.0711 18.5367 14.7966 18.2617C14.5094 17.9741 14.222 17.6866 13.9346 17.3991C13.3908 16.8551 12.8472 16.3109 12.3037 15.7666C11.6847 15.1469 11.0655 14.5273 10.4463 13.9077C9.17295 12.6336 7.89987 11.3593 6.62695 10.0847C6.92871 9.72534 7.2425 9.38549 7.57314 9.05263C7.64736 8.97753 7.64736 8.97753 7.72309 8.9009C7.88518 8.73703 8.04755 8.57346 8.21001 8.40996C8.26568 8.3539 8.32135 8.29785 8.37871 8.2401C8.67259 7.9443 8.96673 7.64876 9.26104 7.3534C9.50469 7.10879 9.7478 6.86367 9.99046 6.61808C10.2839 6.32106 10.5783 6.02491 10.8733 5.72939C10.9856 5.61665 11.0975 5.5036 11.2091 5.39024C11.3647 5.23245 11.5213 5.07581 11.6782 4.91941C11.7243 4.87212 11.7704 4.82483 11.8179 4.7761C11.8608 4.7339 11.9036 4.69169 11.9477 4.64821C11.9845 4.61108 12.0214 4.57396 12.0594 4.5357C12.1736 4.4661 12.1736 4.4661 12.3123 4.487Z"></path>
<path fill="#52525B" d="M40.1948 4.39406C41.3596 4.39406 42.5244 4.39406 43.7245 4.39406C44.1572 5.54203 44.1572 5.54203 44.348 6.04831C44.476 6.38786 44.604 6.72741 44.732 7.06694C45.3101 8.60055 45.8869 10.1347 46.4618 11.6695C46.5824 11.4886 46.6501 11.3542 46.7229 11.154C46.7452 11.0932 46.7675 11.0325 46.7904 10.9699C46.8144 10.9036 46.8383 10.8373 46.863 10.7691C46.8885 10.6993 46.914 10.6296 46.9402 10.5578C46.9953 10.407 47.0503 10.2561 47.1051 10.1051C47.2209 9.78673 47.3373 9.46856 47.4537 9.15038C47.5137 8.98654 47.5736 8.82269 47.6335 8.65883C47.9109 7.89966 48.1902 7.14115 48.4714 6.38334C48.521 6.2494 48.5706 6.11541 48.6201 5.98139C48.6889 5.79482 48.7581 5.60837 48.8274 5.42195C48.8473 5.36763 48.8673 5.3133 48.8879 5.25734C48.9068 5.20662 48.9257 5.1559 48.9452 5.10365C48.9613 5.06023 48.9774 5.01681 48.994 4.97208C49.0765 4.77497 49.1755 4.58517 49.2711 4.39406C50.4121 4.39406 51.5531 4.39406 52.7287 4.39406C52.7287 8.29253 52.7287 12.191 52.7287 16.2076C51.8492 16.2076 50.9697 16.2076 50.0635 16.2076C50.0397 13.5215 50.0159 10.8353 49.9914 8.06779C49.7641 8.64127 49.5368 9.21475 49.3026 9.8056C49.2278 9.99426 49.1531 10.1829 49.076 10.3773C48.7702 11.1489 48.4646 11.9206 48.1605 12.6929C48.1367 12.7532 48.1129 12.8136 48.0885 12.8757C48.0426 12.9923 47.9967 13.1088 47.9508 13.2253C47.558 14.2226 47.1604 15.2175 46.7499 16.2076C46.4647 16.2076 46.1794 16.2076 45.8855 16.2076C45.5574 15.5093 45.2755 14.7961 44.9941 14.0781C44.8864 13.8041 44.7786 13.5301 44.6708 13.2562C44.6421 13.1832 44.6134 13.1103 44.5838 13.0351C44.3608 12.4685 44.1356 11.9028 43.9097 11.3373C43.795 11.0499 43.6805 10.7625 43.5659 10.475C43.4715 10.2383 43.377 10.0017 43.2822 9.76512C43.1755 9.49889 43.0694 9.23243 42.9633 8.96596C42.931 8.88551 42.8986 8.80506 42.8653 8.72218C42.836 8.64844 42.8068 8.5747 42.7766 8.49872C42.738 8.40213 42.738 8.40213 42.6986 8.30358C42.644 8.13982 42.644 8.13982 42.644 7.92372C42.5964 7.92372 42.5489 7.92372 42.4999 7.92372C42.4999 10.6574 42.4999 13.3911 42.4999 16.2076C41.7392 16.2076 40.9786 16.2076 40.1948 16.2076C40.1948 12.3091 40.1948 8.41067 40.1948 4.39406Z"></path>
<path fill="#52525B" d="M40.1948 18.2246C46.8833 18.2246 46.8833 18.2246 47.9883 19.2331C48.6464 19.9118 48.7749 20.6861 48.7669 21.6102C48.7144 22.2887 48.4555 22.8942 47.961 23.366C47.6363 23.636 47.2942 23.7882 46.894 23.9153C46.9541 23.9362 47.0141 23.9572 47.076 23.9788C47.9029 24.2801 48.5875 24.6092 48.9827 25.4336C49.3255 26.2931 49.2992 27.3028 48.983 28.1653C48.652 28.8951 48.1045 29.4131 47.3794 29.748C45.2149 30.5601 42.0426 30.1102 40.1948 30.1102C40.1948 26.1879 40.1948 22.2657 40.1948 18.2246ZM42.716 20.0975C42.7096 20.3209 42.7077 20.5428 42.709 20.7663C42.7091 20.8334 42.7092 20.9004 42.7093 20.9695C42.7097 21.1846 42.7106 21.3996 42.7115 21.6147C42.7119 21.7601 42.7122 21.9055 42.7125 22.051C42.7133 22.4083 42.7145 22.7656 42.716 23.1229C43.044 23.1283 43.372 23.1322 43.7 23.1348C43.8113 23.1358 43.9227 23.1373 44.034 23.1392C45.0107 23.1685 45.0107 23.1685 45.872 22.7492C46.2455 22.269 46.3085 21.7765 46.2457 21.178C46.1543 20.7288 45.9733 20.4972 45.5974 20.2415C45.1928 20.0392 44.7705 20.0163 44.3241 20.0159C44.1902 20.0157 44.1902 20.0157 44.0536 20.0156C43.9613 20.0159 43.8691 20.0161 43.774 20.0164C43.6804 20.0161 43.5867 20.0159 43.4902 20.0156C43.4014 20.0157 43.3126 20.0158 43.2211 20.0159C43.1397 20.0159 43.0584 20.016 42.9745 20.0161C42.7931 20.0043 42.7931 20.0043 42.716 20.0975ZM42.716 24.8517C42.7089 24.9574 42.7068 25.0635 42.7067 25.1695C42.7065 25.2371 42.7062 25.3046 42.706 25.3742C42.7061 25.4477 42.7063 25.5211 42.7064 25.5968C42.7064 25.6717 42.7063 25.7465 42.7062 25.8237C42.7062 25.9823 42.7063 26.141 42.7066 26.2997C42.707 26.5434 42.7066 26.7872 42.7062 27.031C42.7062 27.1847 42.7063 27.3385 42.7064 27.4922C42.7063 27.5656 42.7062 27.6391 42.706 27.7148C42.7062 27.7823 42.7065 27.8499 42.7067 27.9195C42.7067 27.9792 42.7068 28.039 42.7069 28.1006C42.701 28.2381 42.701 28.2381 42.788 28.3093C43.0815 28.327 43.3753 28.3258 43.6693 28.3266C43.8157 28.3273 43.962 28.3295 44.1084 28.3318C44.887 28.3349 45.6933 28.3159 46.2775 27.739C46.5995 27.3088 46.6729 26.7441 46.6058 26.2203C46.5125 25.7848 46.3636 25.4455 46.0296 25.1398C45.2882 24.7216 44.4347 24.7676 43.6074 24.7707C43.5292 24.7704 43.4509 24.7701 43.3702 24.7698C43.296 24.7699 43.2218 24.77 43.1454 24.7701C43.0449 24.7702 43.0449 24.7702 42.9423 24.7703C42.7893 24.7625 42.7893 24.7625 42.716 24.8517Z"></path>
<path fill="#52525B" d="M69.1523 18.2966C69.913 18.2966 70.6737 18.2966 71.4574 18.2966C71.4574 20.5311 71.4574 22.7656 71.4574 25.0678C71.7671 24.7585 71.7671 24.7585 72.043 24.4293C72.0829 24.3779 72.1228 24.3265 72.1639 24.2735C72.2056 24.2191 72.2474 24.1648 72.2903 24.1088C72.3343 24.052 72.3782 23.9951 72.4234 23.9365C72.7794 23.4745 73.1316 23.0097 73.4806 22.5424C73.5144 22.499 73.5483 22.4555 73.5832 22.4108C73.6987 22.2541 73.6987 22.2541 73.7983 22.05C74.1023 21.5165 74.1023 21.5165 74.3998 21.4253C74.7869 21.367 75.1742 21.3939 75.5634 21.4166C75.6822 21.4205 75.801 21.4242 75.9199 21.4274C76.2095 21.4361 76.4986 21.4497 76.7879 21.4661C76.5261 21.8173 76.262 22.1663 75.9911 22.5106C75.9409 22.5744 75.9409 22.5744 75.8898 22.6395C75.6281 22.9713 75.3622 23.2996 75.0951 23.6271C74.7871 24.0053 74.48 24.3841 74.1767 24.7661C74.1431 24.808 74.1096 24.8498 74.075 24.8929C73.9341 25.0713 73.8351 25.2103 73.7625 25.428C73.8281 25.5625 73.8281 25.5625 73.935 25.6972C73.9738 25.7498 74.0125 25.8024 74.0525 25.8566C74.095 25.9128 74.1374 25.9689 74.1812 26.0267C74.2687 26.145 74.3563 26.2633 74.4437 26.3816C74.4873 26.44 74.531 26.4985 74.5759 26.5587C74.74 26.7799 74.8999 27.004 75.0591 27.2288C75.3336 27.6142 75.6103 27.9979 75.8875 28.3813C76.0055 28.5446 76.1234 28.7079 76.2413 28.8712C76.3167 28.9756 76.3922 29.08 76.4676 29.1844C76.5701 29.3263 76.6723 29.4683 76.7744 29.6104C76.8052 29.6529 76.8359 29.6954 76.8676 29.7392C77.0761 30.0299 77.0761 30.0299 77.0761 30.1102C74.7965 30.3143 74.7965 30.3143 74.2054 30.0015C73.8973 29.7191 73.7243 29.3683 73.5571 28.99C73.428 28.7145 73.2517 28.4783 73.0737 28.2328C73.0095 28.1395 72.9457 28.0459 72.8821 27.9522C72.6622 27.631 72.4383 27.3127 72.2138 26.9947C72.1774 26.9432 72.1411 26.8916 72.1036 26.8385C71.9668 26.6451 71.8306 26.4531 71.6848 26.2665C71.6015 26.1483 71.6015 26.1483 71.6015 26.0042C71.554 26.0042 71.5064 26.0042 71.4574 26.0042C71.4574 27.3592 71.4574 28.7141 71.4574 30.1102C70.6968 30.1102 69.9361 30.1102 69.1523 30.1102C69.1523 26.2117 69.1523 22.3132 69.1523 18.2966Z"></path>
<path fill="#52525B" d="M75.8514 8.13982C76.7641 8.78414 77.196 9.75872 77.3866 10.8366C77.4406 11.3518 77.4362 11.8718 77.4362 12.3898C75.3681 12.3898 73.3 12.3898 71.1692 12.3898C71.3237 13.4256 71.3237 13.4256 71.8977 14.2638C72.471 14.6718 73.0706 14.7565 73.7624 14.6949C74.232 14.6084 74.591 14.4743 74.915 14.1186C74.9863 13.9285 75.0576 13.7383 75.1311 13.5424C75.868 13.5424 76.6049 13.5424 77.3641 13.5424C77.2483 14.4692 76.8748 15.1208 76.1396 15.7034C74.9722 16.4495 73.4446 16.593 72.1031 16.3337C70.885 16.0255 69.9237 15.4054 69.2657 14.3333C68.8647 13.5742 68.7779 12.8321 68.7741 11.9891C68.7726 11.9087 68.7711 11.8282 68.7696 11.7453C68.7642 10.5753 69.1364 9.57778 69.9002 8.68796C70.4173 8.17233 71.0436 7.77424 71.7455 7.56355C71.8301 7.53792 71.9147 7.51229 72.0018 7.48589C73.3243 7.16387 74.7184 7.42459 75.8514 8.13982ZM71.6014 9.72457C71.3177 10.1292 71.268 10.5272 71.1692 11.0212C72.4766 11.0212 73.784 11.0212 75.1311 11.0212C75.0607 10.3178 74.9808 9.81561 74.4558 9.32838C73.5566 8.64824 72.3112 8.93909 71.6014 9.72457Z"></path>
<path fill="#52525B" d="M56.8436 22.0131C57.3549 22.4804 57.6543 23.167 57.712 23.854C57.7166 24.0205 57.7168 24.1865 57.7154 24.3531C57.7154 24.4157 57.7154 24.4783 57.7154 24.5428C57.7153 24.7478 57.7142 24.9528 57.7131 25.1578C57.7128 25.3008 57.7126 25.4437 57.7124 25.5866C57.7119 25.9613 57.7105 26.336 57.7089 26.7106C57.7074 27.0936 57.7068 27.4765 57.706 27.8594C57.7045 28.6097 57.702 29.3599 57.699 30.1102C56.9621 30.1102 56.2252 30.1102 55.4659 30.1102C55.4659 29.7774 55.4659 29.4446 55.4659 29.1017C55.3842 29.176 55.3025 29.2503 55.2183 29.3268C54.2844 30.1376 53.4733 30.3347 52.252 30.2695C51.4683 30.1999 50.9129 29.8792 50.3695 29.3358C49.885 28.6359 49.8229 27.9166 49.9193 27.0848C49.9812 26.8381 50.0692 26.6485 50.2075 26.4365C50.2311 26.3927 50.2546 26.349 50.2789 26.3039C50.6657 25.6589 51.4573 25.3353 52.1524 25.1398C52.9639 24.9485 53.7843 24.9123 54.615 24.9192C54.7282 24.9197 54.7282 24.9197 54.8437 24.9202C55.0271 24.9211 55.2105 24.9222 55.3939 24.9237C55.3742 24.0134 55.3742 24.0134 54.9482 23.2399C54.4347 22.9432 53.948 22.945 53.377 23.0509C53.0347 23.1753 52.8565 23.3238 52.6566 23.6271C52.5853 23.7935 52.514 23.9599 52.4405 24.1314C51.7036 24.1314 50.9667 24.1314 50.2075 24.1314C50.3797 23.1843 50.6103 22.5281 51.387 21.9298C52.8847 20.9172 55.3922 20.9246 56.8436 22.0131ZM52.3325 26.9092C52.1796 27.2595 52.1761 27.5725 52.2244 27.9492C52.3062 28.164 52.3062 28.164 52.4405 28.3093C52.4702 28.3494 52.4999 28.3896 52.5306 28.4309C52.893 28.7027 53.3745 28.7155 53.8092 28.6695C54.4127 28.5446 54.8928 28.328 55.2498 27.8051C55.4122 27.4895 55.411 27.1931 55.4029 26.8461C55.4023 26.7928 55.4016 26.7395 55.4009 26.6845C55.3993 26.5538 55.3967 26.4231 55.3939 26.2924C53.7414 26.1944 53.7414 26.1944 52.3325 26.9092Z"></path>
<path fill="#52525B" d="M95.1528 7.91023C95.2521 7.98447 95.3497 8.06097 95.4454 8.13984C95.4912 8.17596 95.537 8.21208 95.5841 8.24929C96.0515 8.66065 96.2867 9.26118 96.3818 9.86865C96.3882 10.0769 96.391 10.2833 96.39 10.4914C96.39 10.5533 96.39 10.6152 96.3901 10.679C96.39 10.8828 96.3894 11.0866 96.3889 11.2905C96.3887 11.4321 96.3886 11.5737 96.3886 11.7153C96.3883 12.0875 96.3876 12.4597 96.3868 12.8319C96.3861 13.2119 96.3857 13.5919 96.3854 13.9719C96.3846 14.7172 96.3833 15.4624 96.3818 16.2076C95.6449 16.2076 94.908 16.2076 94.1488 16.2076C94.1488 15.8748 94.1488 15.542 94.1488 15.1992C94.1012 15.1992 94.0537 15.1992 94.0047 15.1992C93.9862 15.2415 93.9678 15.2838 93.9487 15.3275C93.6464 15.8762 93.0448 16.1601 92.4678 16.3289C91.5265 16.5498 90.5181 16.4682 89.6638 15.9977C89.067 15.6249 88.761 15.1557 88.6022 14.4788C88.5071 13.6201 88.5908 12.8915 89.1334 12.1962C89.7315 11.5693 90.5762 11.3007 91.4115 11.1653C91.4934 11.1518 91.5753 11.1383 91.6597 11.1245C92.1267 11.0683 92.5988 11.0857 93.0683 11.0887C93.1663 11.0891 93.2643 11.0894 93.3623 11.0897C93.6005 11.0906 93.8386 11.0917 94.0768 11.0932C94.068 10.9456 94.0585 10.7979 94.0486 10.6503C94.0434 10.5681 94.0382 10.4859 94.0328 10.4012C93.9835 9.9717 93.8774 9.56908 93.5365 9.28788C92.9951 9.08484 92.387 9.04823 91.8437 9.26537C91.3919 9.49739 91.2803 9.83017 91.1234 10.3009C90.3865 10.3009 89.6496 10.3009 88.8903 10.3009C89.0454 9.44807 89.2495 8.67774 89.9708 8.13984C91.4051 7.22138 93.6652 6.99006 95.1528 7.91023ZM91.1054 12.9346C90.8467 13.2949 90.8638 13.691 90.9073 14.1187C91.0775 14.4854 91.2602 14.6145 91.6276 14.767C92.3835 14.8602 93.0066 14.7571 93.6401 14.3393C93.9617 14.0176 94.0719 13.725 94.0838 13.2779C94.0833 13.18 94.0825 13.082 94.0813 12.9841C94.0809 12.9339 94.0806 12.8836 94.0803 12.8319C94.0794 12.7085 94.0781 12.5852 94.0768 12.4619C92.5001 12.3356 92.5001 12.3356 91.1054 12.9346Z"></path>
<path fill="#52525B" d="M60.8437 8.07426C61.3796 8.5117 61.6583 9.12897 61.8046 9.7966C61.8111 10.0043 61.8137 10.2102 61.8128 10.4178C61.8128 10.4804 61.8128 10.543 61.8128 10.6074C61.8128 10.814 61.8122 11.0206 61.8117 11.2272C61.8115 11.3705 61.8114 11.5138 61.8114 11.6571C61.8111 12.0342 61.8104 12.4112 61.8096 12.7883C61.8088 13.1731 61.8085 13.5579 61.8082 13.9428C61.8074 14.6977 61.8061 15.4527 61.8046 16.2076C61.0677 16.2076 60.3308 16.2076 59.5716 16.2076C59.5716 15.8748 59.5716 15.542 59.5716 15.1991C59.524 15.1991 59.4765 15.1991 59.4275 15.1991C59.4088 15.2416 59.39 15.284 59.3707 15.3277C59.0578 15.9001 58.4327 16.1553 57.8428 16.3517C57.5952 16.4102 57.5952 16.4102 57.3385 16.4237C57.2698 16.4273 57.2011 16.431 57.1303 16.4347C56.2397 16.4611 55.461 16.2721 54.7318 15.7574C54.2395 15.276 54.0122 14.7252 53.9976 14.0356C53.9996 13.256 54.115 12.6725 54.671 12.0882C55.713 11.1584 57.1838 11.0667 58.5136 11.0842C58.61 11.0849 58.7063 11.0856 58.8027 11.0862C59.035 11.0879 59.2673 11.0902 59.4996 11.0932C59.4908 10.9329 59.4813 10.7726 59.4714 10.6123C59.4662 10.5231 59.461 10.4338 59.4556 10.3418C59.4185 10.002 59.3334 9.71905 59.1394 9.43643C58.7031 9.08738 58.1624 9.10125 57.6267 9.1483C57.3299 9.22106 57.0786 9.31597 56.8796 9.55518C56.7391 9.79085 56.6479 10.0464 56.5462 10.3008C55.8093 10.3008 55.0723 10.3008 54.3131 10.3008C54.5357 9.26192 54.7457 8.59668 55.6097 7.99576C57.1321 7.1373 59.3776 7.06027 60.8437 8.07426ZM56.5282 12.9346C56.2695 13.2948 56.2866 13.691 56.3301 14.1186C56.5003 14.4854 56.683 14.6145 57.0504 14.7669C57.8091 14.8605 58.4122 14.7461 59.0583 14.3527C59.5067 13.878 59.527 13.4613 59.5143 12.8425C59.5104 12.7156 59.5051 12.5887 59.4996 12.4619C57.9229 12.3356 57.9229 12.3356 56.5282 12.9346Z"></path>
<path fill="#52525B" d="M66.3743 21.7362C67.0707 22.3212 67.3946 23.0996 67.4953 23.9873C67.52 24.459 67.5121 24.9319 67.5094 25.404C67.5091 25.5402 67.5089 25.6763 67.5088 25.8125C67.5082 26.1683 67.5068 26.5242 67.5052 26.88C67.5037 27.2441 67.5031 27.6083 67.5023 27.9724C67.5008 28.685 67.4983 29.3976 67.4953 30.1102C66.7108 30.1102 65.9264 30.1102 65.1182 30.1102C65.1175 29.9394 65.1168 29.7686 65.1161 29.5926C65.1137 29.0262 65.1097 28.4598 65.1049 27.8934C65.1021 27.5502 65.0998 27.2071 65.0987 26.8639C65.0976 26.5323 65.0951 26.2007 65.0917 25.8691C65.0906 25.743 65.09 25.6169 65.09 25.4908C65.1021 24.3941 65.1021 24.3941 64.6004 23.447C64.0752 23.1669 63.5348 23.1501 62.9572 23.2669C62.5371 23.4046 62.267 23.6144 62.0207 23.9873C61.7457 24.6065 61.7703 25.2322 61.7678 25.8965C61.7665 26.0183 61.7652 26.1401 61.7638 26.2619C61.7604 26.5806 61.7583 26.8992 61.7564 27.2179C61.7539 27.6013 61.7498 27.9847 61.7459 28.3681C61.7403 28.9488 61.7366 29.5295 61.7326 30.1102C60.9481 30.1102 60.1637 30.1102 59.3555 30.1102C59.3555 27.2576 59.3555 24.4051 59.3555 21.4661C60.1399 21.4661 60.9244 21.4661 61.7326 21.4661C61.7682 22.0723 61.7682 22.0723 61.8046 22.6907C61.8863 22.5807 61.968 22.4708 62.0522 22.3575C63.0468 21.1195 65.0503 20.8184 66.3743 21.7362Z"></path>
<path fill="#52525B" d="M63.8222 5.69067C64.6067 5.69067 65.3911 5.69067 66.1993 5.69067C66.1993 6.30872 66.1993 6.92678 66.1993 7.56356C66.7936 7.56356 67.3879 7.56356 68.0002 7.56356C68.0002 8.11029 68.0002 8.65703 68.0002 9.22034C67.4059 9.22034 66.8116 9.22034 66.1993 9.22034C66.2039 9.81398 66.2093 10.4076 66.2163 11.0012C66.2195 11.2769 66.2224 11.5525 66.2243 11.8282C66.2262 12.0945 66.2291 12.3607 66.2327 12.6269C66.2339 12.7283 66.2347 12.8296 66.2352 12.931C66.2359 13.0734 66.238 13.2158 66.2402 13.3582C66.2414 13.4796 66.2414 13.4796 66.2426 13.6035C66.2757 13.8647 66.3513 14.0383 66.4875 14.2627C66.9636 14.5982 67.5219 14.4603 68.0722 14.4068C68.0722 15.0011 68.0722 15.5953 68.0722 16.2076C67.0205 16.4706 65.8995 16.5718 64.9185 16.0256C64.4321 15.7028 64.1386 15.3244 63.9663 14.7669C63.828 14.0676 63.8025 13.3781 63.8081 12.6673C63.8084 12.567 63.8086 12.4667 63.8088 12.3664C63.8093 12.1061 63.8107 11.8458 63.8123 11.5855C63.8138 11.3184 63.8145 11.0513 63.8152 10.7843C63.8167 10.2629 63.8192 9.74164 63.8222 9.22034C63.4656 9.22034 63.1091 9.22034 62.7417 9.22034C62.7417 8.6736 62.7417 8.12686 62.7417 7.56356C63.0983 7.56356 63.4548 7.56356 63.8222 7.56356C63.8222 6.9455 63.8222 6.32745 63.8222 5.69067Z"></path>
<path fill="#52525B" d="M98.1099 4.39406C98.8943 4.39406 99.6788 4.39406 100.487 4.39406C100.487 8.29253 100.487 12.191 100.487 16.2076C99.7025 16.2076 98.9181 16.2076 98.1099 16.2076C98.1099 12.3091 98.1099 8.41067 98.1099 4.39406Z"></path>
<path fill="#52525B" d="M83.7753 7.41949C83.7753 8.1564 83.7753 8.89331 83.7753 9.65255C83.4945 9.67929 83.4945 9.67929 83.208 9.70657C82.4941 9.78587 81.8029 9.93539 81.3262 10.517C80.9981 11.1346 80.9945 11.7771 80.9941 12.4582C80.993 12.5669 80.9918 12.6756 80.9905 12.7843C80.9874 13.0677 80.9859 13.351 80.9848 13.6344C80.9832 13.9759 80.9794 14.3173 80.976 14.6587C80.9711 15.175 80.9688 15.6913 80.966 16.2076C80.1815 16.2076 79.3971 16.2076 78.5889 16.2076C78.5889 13.3551 78.5889 10.5025 78.5889 7.56356C79.3733 7.56356 80.1578 7.56356 80.966 7.56356C80.9898 8.06276 81.0135 8.56195 81.038 9.07627C81.1093 8.96782 81.1806 8.85936 81.2541 8.74762C81.7055 8.10687 82.2194 7.6817 82.995 7.51432C83.5424 7.41949 83.5424 7.41949 83.7753 7.41949Z"></path>
<path fill="#52525B" d="M85 7.56357C85.7607 7.56357 86.5214 7.56357 87.3051 7.56357C87.3051 10.4161 87.3051 13.2687 87.3051 16.2076C86.5444 16.2076 85.7837 16.2076 85 16.2076C85 13.3551 85 10.5026 85 7.56357Z"></path>
<path fill="#52525B" d="M86.8952 3.94387C87.224 4.21912 87.4311 4.4734 87.521 4.89832C87.5344 5.30392 87.4604 5.62469 87.2019 5.94225C86.8968 6.23527 86.5725 6.35501 86.1524 6.37501C85.7323 6.35501 85.408 6.23527 85.1028 5.94225C84.8451 5.62557 84.7614 5.30377 84.7837 4.89832C84.8555 4.48864 85.041 4.22711 85.3684 3.97566C85.8559 3.66723 86.3974 3.68087 86.8952 3.94387Z"></path>
<path fill="#52525B" d="M79.1154 21.5471C79.4126 21.7545 79.6243 21.98 79.7412 22.3305C79.7783 22.6844 79.7826 22.9665 79.6241 23.2895C79.1294 23.8492 79.1294 23.8492 78.6697 23.9198C78.2929 23.939 78.0257 23.8522 77.7242 23.6271C77.437 23.3527 77.3035 23.1137 77.2695 22.7132C77.2746 22.3694 77.3868 22.1077 77.5802 21.8263C78.0183 21.4095 78.5507 21.3553 79.1154 21.5471ZM77.5937 22.0604C77.4316 22.4357 77.4012 22.7137 77.5126 23.1004C77.697 23.4156 77.878 23.6338 78.2364 23.7473C78.594 23.8095 78.8693 23.7684 79.1843 23.586C79.4861 23.3367 79.583 23.0238 79.6286 22.6457C79.5752 22.2337 79.4094 21.9493 79.0929 21.6822C78.5054 21.4864 77.993 21.5646 77.5937 22.0604Z"></path>
<path fill="#52525B" d="M78.1567 22.0424C78.724 22.0424 78.724 22.0424 78.9491 22.1864C78.9491 22.3291 78.9491 22.4717 78.9491 22.6186C78.8778 22.6424 78.8065 22.6662 78.733 22.6907C78.8281 22.8808 78.9232 23.071 79.0211 23.2669C78.733 23.1949 78.733 23.1949 78.616 23.0103C78.5833 22.9524 78.5506 22.8944 78.5169 22.8347C78.4694 22.8347 78.4218 22.8347 78.3728 22.8347C78.3491 22.9774 78.3253 23.12 78.3008 23.2669C78.2533 23.2669 78.2057 23.2669 78.1567 23.2669C78.1567 22.8628 78.1567 22.4587 78.1567 22.0424ZM78.3728 22.1864C78.2795 22.2632 78.2795 22.2632 78.2963 22.443C78.2978 22.501 78.2993 22.5589 78.3008 22.6186C78.4434 22.6186 78.5861 22.6186 78.733 22.6186C78.7568 22.5473 78.7806 22.476 78.805 22.4025C78.7105 22.29 78.7105 22.29 78.5889 22.1864C78.5176 22.1864 78.4463 22.1864 78.3728 22.1864Z"></path>
</svg>
