<svg xmlns="http://www.w3.org/2000/svg" fill="none" viewBox="0 0 117 28" height="28" width="117">
<g clip-path="url(#clip0_57422_9770)">
<path fill="#52525B" d="M116.674 12.7506V13.295C116.674 13.295 116.052 13.5283 116.052 14.3061V26.595C116.052 27.0617 115.663 27.3728 115.274 27.3728H112.863L107.574 18.9728C107.574 18.9728 107.652 19.6728 107.652 20.5283V27.3728H104.696V12.7506H106.641C107.652 12.7506 108.352 13.1394 108.819 13.9172L113.252 20.9172C113.252 20.9172 113.096 20.4506 113.096 19.3617V12.7506H116.674ZM60.0519 12.7506V26.595C60.0519 27.0617 59.663 27.3728 59.2741 27.3728H56.7852L51.4963 18.9728C51.4963 18.9728 51.5741 19.6728 51.5741 20.5283V27.3728H48.6185V12.7506H50.563C51.5741 12.7506 52.2741 13.1394 52.7408 13.9172L57.1741 20.9172C57.1741 20.9172 57.0185 20.4506 57.0185 19.3617V12.7506C57.0963 12.7506 60.0519 12.7506 60.0519 12.7506ZM23.4963 12.7506H19.5297V18.3506H16.1074V12.7506H11.5186V13.295C11.5186 13.295 12.1408 13.5283 12.1408 14.3061V27.3728H16.1074V21.0728H19.5297V27.3728H23.4963V12.7506ZM36.3297 12.7506H27.5408V26.0506C27.5408 26.8283 28.2408 27.3728 29.0186 27.3728H36.3297C36.7963 27.3728 37.1074 26.9839 37.1074 26.595V24.7283H32.0519C31.7408 24.7283 31.4297 24.495 31.4297 24.1061V20.995H35.9408V18.3506H31.4297V15.395H37.0297V13.5283C37.1074 13.1394 36.7185 12.7506 36.3297 12.7506ZM44.6519 12.7506H40.6852V26.595C40.6852 27.0617 41.0741 27.3728 41.463 27.3728H44.6519V12.7506ZM100.574 12.7506H91.7852V26.0506C91.7852 26.7506 92.4852 27.3728 93.263 27.3728H100.574C101.041 27.3728 101.352 26.9839 101.352 26.595V24.7283H96.2963C95.9852 24.7283 95.6741 24.495 95.6741 24.1061V20.995H100.185V18.3506H95.6741V15.395H101.274V13.5283C101.352 13.1394 100.963 12.7506 100.574 12.7506ZM72.8074 12.7506H64.0185V26.0506C64.0185 26.7506 64.7185 27.3728 65.4963 27.3728H72.8074C73.2741 27.3728 73.5852 26.9839 73.5852 26.595V24.7283H68.5297C68.2185 24.7283 67.9074 24.495 67.9074 24.1061V20.995H72.4185V18.3506H67.9074V15.395H73.5074V13.5283C73.5852 13.1394 73.1963 12.7506 72.8074 12.7506ZM89.4519 12.7506H86.5741C85.8741 12.7506 85.3297 12.9061 84.7852 13.5283L80.7408 18.1172V12.6728H76.7741V26.5172C76.7741 26.9839 77.163 27.295 77.5519 27.295H80.7408V20.6839L84.2408 26.1283C84.7852 26.9061 85.2519 27.3728 86.4963 27.3728H89.763L84.2408 18.7394L89.4519 12.7506Z" clip-rule="evenodd" fill-rule="evenodd"></path>
<path fill="#52525B" d="M3.89204 18.2018C3.81426 18.2796 3.65871 18.2796 3.58093 18.1241C3.50315 18.0463 3.50315 17.9685 3.58093 17.8907C3.65871 17.5796 5.68093 11.2796 5.68093 11.2796L0.0809292 7.23518C-0.0746263 7.07963 0.00315143 6.76852 0.236485 6.76852C0.547596 6.76852 7.08093 6.76852 7.08093 6.76852C7.08093 6.76852 9.10315 0.468517 9.18093 0.157406C9.25871 0.0796279 9.33648 0.00185013 9.49204 0.00185013C9.56982 0.00185013 9.6476 0.0796279 9.6476 0.157406C9.72537 0.468517 11.7476 6.76852 11.7476 6.76852C11.7476 6.76852 18.2031 6.76852 18.592 6.76852C18.8254 6.76852 18.9032 7.07963 18.7476 7.23518L15.4809 9.64629H11.592L10.4254 5.91296L9.25871 9.64629H5.36982L8.55871 11.9796L7.39204 15.713L3.89204 18.2018Z" clip-rule="evenodd" fill-rule="evenodd"></path>
</g>
<defs>
<clipPath id="clip0_57422_9770">
<rect fill="white" height="28" width="116.667"></rect>
</clipPath>
</defs>
</svg>
