<svg xmlns="http://www.w3.org/2000/svg" fill="none" viewBox="0 0 120 40" height="40" width="120">
<path fill="#52525B" d="M95.8857 28.625H2.55664V11.2656H95.8857V28.625ZM70.3467 14.7471C69.5347 14.7472 68.8138 15.1687 68.3867 15.8184L63.2139 23.2842C62.8282 23.8391 62.9515 24.6124 63.4932 25.0108C64.0301 25.4091 64.783 25.281 65.1641 24.7217L66.3672 22.9854H74.3271L75.5303 24.7217C75.9165 25.2763 76.6643 25.4042 77.2012 25.0108C77.7382 24.6124 77.8669 23.8392 77.4814 23.2842L72.3076 15.8184C71.8812 15.1733 71.1592 14.7471 70.3467 14.7471ZM50.7178 14.751C49.4783 14.751 48.4679 15.7899 48.4678 17.0752V23.9912C48.468 24.674 49.0051 25.2285 49.666 25.2285C50.3273 25.2285 50.8641 24.6741 50.8643 23.9912V17.0664H58.0352C58.6043 17.0664 59.0633 17.5448 59.0635 18.1328C59.0635 18.721 58.6044 19.1953 58.0352 19.1953H51.5068C51.5068 20.495 52.5264 21.5195 53.7842 21.5195L58.3887 21.5244C60.202 21.5243 61.6709 20.0065 61.6709 18.1377C61.6708 16.2691 60.202 14.7511 58.3887 14.751H50.7178ZM83.3535 14.751C82.114 14.751 81.1047 15.7899 81.1045 17.0752V23.9912C81.1047 24.6741 81.6418 25.2285 82.3027 25.2285C82.9634 25.2283 83.4998 24.6739 83.5 23.9912V17.0664H90.6709C91.24 17.0664 91.699 17.5448 91.6992 18.1328C91.6992 18.721 91.2401 19.1953 90.6709 19.1953H84.1475C84.1475 20.495 85.1622 21.5195 86.4199 21.5195L89.7666 21.5244L92.1904 24.7451C92.5947 25.2857 93.3476 25.3851 93.8711 24.9678C94.3937 24.5504 94.4901 23.7731 94.0869 23.2324L92.5303 21.1494C93.586 20.5849 94.3066 19.4466 94.3066 18.1377C94.3065 16.269 92.8378 14.7511 91.0244 14.751H83.3535ZM34.416 14.7422C32.7405 14.7423 31.3867 16.1417 31.3867 17.8682C31.3869 19.5944 32.7406 20.993 34.416 20.9932L40.9121 20.9981C41.4354 20.9982 41.8621 21.4439 41.8623 21.9844C41.8623 22.525 41.4356 22.9667 40.9121 22.9668H31.373C31.3732 24.162 32.3142 25.1104 33.4756 25.1104L41.2422 25.1152C42.9131 25.1152 44.2725 23.7157 44.2725 21.9893C44.2723 20.2629 42.9177 18.8643 41.2422 18.8643L34.7471 18.8594C34.2235 18.8594 33.7969 18.4176 33.7969 17.877C33.797 17.3364 34.2236 16.8955 34.7471 16.8955H43.8779C43.8779 15.6956 42.9366 14.7375 41.7754 14.7373L34.416 14.7422ZM70.3467 17.3936C70.4298 17.3936 70.4987 17.4364 70.5449 17.4981L72.8125 20.7842H67.8818L70.1504 17.4981C70.1919 17.4365 70.2644 17.3937 70.3467 17.3936Z"></path>
<path fill="#52525B" d="M115.58 20.1352C115.58 16.1509 112.454 12.9257 108.593 12.9257C104.737 12.9257 101.606 16.1557 101.606 20.1352C101.606 26.3059 107.739 27.7288 107.739 24.9541V23.5976L103.047 23.5881C106.954 18.7739 108.593 13.1154 108.593 13.1154C108.593 13.1154 110.236 18.7739 114.134 23.5834L109.442 23.5929V24.9541C109.442 27.7288 115.571 26.396 115.571 20.2252L115.58 20.1352ZM117.439 20.211C117.439 25.2577 113.482 29 108.593 29C103.704 29 99.7422 25.1818 99.7422 20.1352C99.7422 15.0885 103.704 11 108.593 11C113.482 11 117.444 15.0885 117.444 20.1352L117.439 20.211Z"></path>
</svg>
